<?xml version="1.0" standalone="no"?>
<!DOCTYPE svg PUBLIC "-//W3C//DTD SVG 1.1//EN" "http://www.w3.org/Graphics/SVG/1.1/DTD/svg11.dtd" >
<!--
2013-9-30: Created.
-->
<svg>
<metadata>
Created by iconfont
</metadata>
<defs>

<font id="panyi-font" horiz-adv-x="1024" >
  <font-face
    font-family="panyi-font"
    font-weight="500"
    font-stretch="normal"
    units-per-em="1024"
    ascent="896"
    descent="-128"
  />
    <missing-glyph />
    
    <glyph glyph-name="facebook-o" unicode="&#59258;" d="M672.00704 704.00384c-88.369433 0-160.00704-71.637607-160.00704-160.00704l0-96.00832-127.99744 0 0-127.99744 127.99744 0 0-447.99104 127.99744 0 0 447.99104 143.992 0 32.0096 127.99744-176.0016 0 0 96.00832c0 17.673887 14.335713 32.0096 32.0096 32.0096l160.00704 0 0 127.99744-160.00704 0z"  horiz-adv-x="1024" />

    
    <glyph glyph-name="new2" unicode="&#58911;" d="M221.45653388 368.39782505999995L17.34163995 548.83934147l0-87.09423711 269.99474434-238.28742022L287.33638429 539.01082746l-65.87985041 0L221.45653388 368.39782505999995zM221.45653388 368.39782505999995M17.34163995 233.28619693999997l65.8798504 0 0 122.37703426-65.8798504 57.61739193L17.34163995 233.28619693999997zM17.34163995 233.28619693999997M451.47776978 417.97257716l120.3738269 0 0-64.09521894-120.3738269 0L451.47776978 417.97257716 451.47776978 417.97257716zM451.47776978 417.97257716M451.47776978 297.37520574999996l120.3738269 0 0-64.08900881-120.3738269 0L451.47776978 297.37520574999996 451.47776978 297.37520574999996zM451.47776978 297.37520574999996M348.30694627 539.01082746l65.87985041 0 0-305.72463052-65.87985041 0L348.30694627 539.01082746 348.30694627 539.01082746zM348.30694627 539.01082746M451.47776978 539.01082746l120.3738269 0 0-64.09025158-120.3738269 0L451.47776978 539.01082746 451.47776978 539.01082746zM451.47776978 539.01082746M576.09149311 539.01082746l130.86676431-316.22253653 37.96533248 78.60823413L647.11411242 539.01082746 576.09149311 539.01082746zM576.09149311 539.01082746M732.41750915 426.2337941l33.50313309-81.28704481 25.23073983 52.7031349 84.41666916-174.86159326 33.50189155 81.29201221L791.15138207 548.61579696 732.41750915 426.2337941zM732.41750915 426.2337941M936.091523 539.01082746l-46.67363966-110.98743452 38.18390961-78.83674602 79.05532314 189.82418174L936.091523 539.01082746zM936.091523 539.01082746"  horiz-adv-x="1024" />

    
    <glyph glyph-name="volume-up" unicode="&#58981;" d="M618.73442019 816.86688086c-23.50478905 12.33221291-52.55278592 8.65187613-79.69133909-10.09560234L327.06104547 660.33206842c-16.49689714-11.39611989-20.63130851-34.00672939-9.23518862-50.50362652 11.39611989-16.49573205 34.00672939-20.63247246 50.50362653-9.23518863L580.31151901 747.03013548c0.97917269 0.67645554 1.87684409 1.2492891 2.69650716 1.73596445 0.06520035-0.95006493 0.10478706-2.0153947 0.10478706-3.20530432l0-709.57845504c0-5.27309255-0.86623573-8.26998784-1.46002603-9.70207119-1.54152619 0.15019349-4.59314403 0.79521337-9.2468315 3.2751616L302.88329387 173.14211840999997c-40.42083101 21.53480078-107.96042354 38.40194333-153.75913302 38.40194333l-37.96416853 0c-20.0177243 0-36.30388451 16.28615907-36.30388451 36.30504846L74.85610781 534.53464577c0 20.0177243 16.28615907 36.30388451 36.30388451 36.30388451l110.57193643 0c20.05032505 0 36.30388451 16.25355947 36.30388451 36.30388453s-16.25355947 36.30388451-36.30388451 36.30388451l-110.57193643 0c-60.05433913 0-108.91165241-48.85731328-108.91165241-108.91165241l0-286.68553557c0-60.05433913 48.85731328-108.91165241 108.91165241-108.91165242l37.96416853 0c33.84838599 0 89.74502685-13.9610624 119.61967389-29.87697493L538.26533262-34.52620458000001c14.7853824-7.87762062 29.89560377-11.82807381 44.26067627-11.82690872 13.15304107 0.00116395 25.68202013 3.3147483 36.75097316 9.95937963 23.1601573 13.90284686 36.44243513 40.28460829 36.44243512 72.37723818L655.71941717 745.56195955C655.71941717 778.54527375 642.23920925 804.5358319 618.73442019 816.86688086zM875.30662798 415.86969374c-4.77826731 77.12057571-35.45394859 142.97892523-84.16456021 180.68578531-15.85304121 12.27283456-38.65575993 9.36908231-50.92975844-6.4839589-12.27399851-15.85537024-9.37024626-38.65692387 6.4839589-50.93092238 32.19159381-24.92173539 52.65524395-71.48888064 56.14114361-127.76158891 4.32768455-69.84838827-18.47736206-138.58487523-59.51410631-179.38526776-14.21837085-14.13803463-14.28590023-37.12354759-0.14902955-51.34191844 7.09637803-7.13712867 16.41888882-10.70685753 25.74605653-10.70685753 9.25381746 0 18.51345579 3.51733533 25.59469796 10.55782798 28.5985792 28.43441379 51.08926691 66.21229511 65.04101433 109.25279005C872.49834894 329.67809480999995 877.9437568 373.28676638 875.30662798 415.86969374zM1018.7151781 427.87357583c-4.03661141 56.27038037-20.00724651 110.98642546-46.18409188 158.23119019-27.65666418 49.9156571-65.36119523 90.51579051-112.06805617 120.67219684-16.84152775 10.87451591-39.31591566 6.03803421-50.19043158-10.80698653-10.87567986-16.84385678-6.03803421-39.31591566 10.80698652-50.19159552 72.77542627-46.98862023 118.41346446-128.3053147 125.2141113-223.0998892 8.06740082-112.47206627-39.08422087-222.07531008-129.36598756-300.70830422-15.11837127-13.16817693-16.70064811-36.10013241-3.53130724-51.21966762 7.17904327-8.24204515 17.25601678-12.46028573 27.39004075-12.46028573 8.45627506 0 16.95213568 2.93868089 23.82962688 8.92897848 55.18758571 48.06675683 96.67723947 105.4909531 123.31514653 170.67634006C1012.64687218 298.37602248999997 1023.29085838 364.07020659 1018.7151781 427.87357583z"  horiz-adv-x="1024" />

    
    <glyph glyph-name="heart" unicode="&#58982;" d="M997.29180445 564.5482666600001c-8.46392889 140.39722667-118.58944 250.13475555-250.74005334 250.13475556-112.00056889 0-202.76110222-61.18968889-237.19594666-151.20270223-34.42574222 90.03235555-125.13735111 151.20270222-237.15043556 151.20270223-132.14947555 0-242.27498667-109.73639111-250.74005334-250.13589333-2.74659555-41.57781333-13.74549333-348.87452445 346.06307556-558.22677334 0 0 89.64437333-49.36362667 141.58734222-62.53340445v-0.13653333c0.08760889 0.02275555 0.17635555 0.04551111 0.26396445 0.06826667 0.08760889-0.02275555 0.17635555-0.04551111 0.26396444-0.06826667v0.13653333c51.94183111 13.16864 141.58734222 62.53340445 141.58734223 62.53340445 359.80629333 209.35224889 348.80853333 516.64896 346.06193777 558.22791111z"  horiz-adv-x="1024" />

    
    <glyph glyph-name="angle-down" unicode="&#59058;" d="M797.142857 475.428571q0-7.428571-5.714286-13.142857l-266.285714-266.285714q-5.714286-5.714286-13.142857-5.714286t-13.142857 5.714286l-266.285714 266.285714q-5.714286 5.714286-5.714286 13.142857t5.714286 13.142857l28.571429 28.571429q5.714286 5.714286 13.142857 5.714286t13.142857-5.714286l224.571429-224.571429 224.571429 224.571429q5.714286 5.714286 13.142857 5.714286t13.142857-5.714286l28.571429-28.571429q5.714286-5.714286 5.714286-13.142857z"  horiz-adv-x="1024" />

    
    <glyph glyph-name="angle-left" unicode="&#59059;" d="M687.428571 585.142857q0-7.428571-5.714286-13.142857l-224.571429-224.571429 224.571429-224.571429q5.714286-5.714286 5.714286-13.142857t-5.714286-13.142857l-28.571429-28.571429q-5.714286-5.714286-13.142857-5.714286t-13.142857 5.714286l-266.285714 266.285714q-5.714286 5.714286-5.714286 13.142857t5.714286 13.142857l266.285714 266.285714q5.714286 5.714286 13.142857 5.714286t13.142857-5.714286l28.571429-28.571429q5.714286-5.714286 5.714286-13.142857z"  horiz-adv-x="1024" />

    
    <glyph glyph-name="angle-up" unicode="&#59064;" d="M797.142857 219.42857100000003q0-7.428571-5.714286-13.142857l-28.571429-28.571429q-5.714286-5.714286-13.142857-5.714286t-13.142857 5.714286l-224.571429 224.571429-224.571429-224.571429q-5.714286-5.714286-13.142857-5.714286t-13.142857 5.714286l-28.571429 28.571429q-5.714286 5.714286-5.714286 13.142857t5.714286 13.142857l266.285714 266.285714q5.714286 5.714286 13.142857 5.714286t13.142857-5.714286l266.285714-266.285714q5.714286-5.714286 5.714286-13.142857z"  horiz-adv-x="1024" />

    
    <glyph glyph-name="angle-right" unicode="&#59065;" d="M669.142857 347.42857100000003q0-7.428571-5.714286-13.142857l-266.285714-266.285714q-5.714286-5.714286-13.142857-5.714286t-13.142857 5.714286l-28.571429 28.571429q-5.714286 5.714286-5.714286 13.142857t5.714286 13.142857l224.571429 224.571429-224.571429 224.571429q-5.714286 5.714286-5.714286 13.142857t5.714286 13.142857l28.571429 28.571429q5.714286 5.714286 13.142857 5.714286t13.142857-5.714286l266.285714-266.285714q5.714286-5.714286 5.714286-13.142857z"  horiz-adv-x="1024" />

    
    <glyph glyph-name="angle-double-right" unicode="&#58887;" d="M559.428571 347.42857100000003q0-7.428571-5.714286-13.142857l-266.285714-266.285714q-5.714286-5.714286-13.142857-5.714286t-13.142857 5.714286l-28.571429 28.571429q-5.714286 5.714286-5.714286 13.142857t5.714286 13.142857l224.571429 224.571429-224.571429 224.571429q-5.714286 5.714286-5.714286 13.142857t5.714286 13.142857l28.571429 28.571429q5.714286 5.714286 13.142857 5.714286t13.142857-5.714286l266.285714-266.285714q5.714286-5.714286 5.714286-13.142857z m219.428571 0q0-7.428571-5.714286-13.142857l-266.285714-266.285714q-5.714286-5.714286-13.142857-5.714286t-13.142857 5.714286l-28.571429 28.571429q-5.714286 5.714286-5.714286 13.142857t5.714286 13.142857l224.571429 224.571429-224.571429 224.571429q-5.714286 5.714286-5.714286 13.142857t5.714286 13.142857l28.571429 28.571429q5.714286 5.714286 13.142857 5.714286t13.142857-5.714286l266.285714-266.285714q5.714286-5.714286 5.714286-13.142857z"  horiz-adv-x="1024" />

    
    <glyph glyph-name="hot" unicode="&#59022;" d="M373.32896654 404.22031246c-19.65213582 0-35.58551438-15.93337742-35.58551438-35.58434929l0-34.71578568c0-19.65213582 15.93337742-35.5843493 35.58551438-35.5843493s35.5843493 15.93337742 35.5843493 35.5843493l0 34.71578568C408.91331584 388.2869339 392.98110237 404.22031246 373.32896654 404.22031246zM686.64891506 333.91901241000005l0 34.71578567c0 19.65213582-15.93337742 35.5843493-35.5843493 35.5843493-19.65213582 0-35.5843493-15.93337742-35.5843493-35.5843493l0-34.71578567c0-19.65213582 15.93337742-35.5843493 35.5843493-35.5843493C670.71553763 298.33349917 686.64891506 314.26687659000004 686.64891506 333.91901241000005zM411.25937038 194.76479658999995c12.77115278-20.5614501 47.82341917-55.35873707 98.1535653-55.35873707 50.08797355 0 85.56870087 34.53648441 98.64024064 54.94075506 10.50077753 16.40258901 5.73997511 38.00026226-10.52988416 48.71526969-16.26403726 10.70336455-38.25524281 6.15097117-49.17283726-9.97335154-0.15019349-0.22587278-15.51073849-22.51280953-38.93868317-22.51280953-22.77943296 0-36.94541027 20.63014457-37.9012972 22.0668837-10.45420487 16.44333853-32.2195365 21.43583573-48.80142678 11.12600348C406.01189262 233.39610681 400.88550173 211.45613085000002 411.25937038 194.76479658999995zM795.39523698 703.72007822c-24.08810041 24.35472384-46.89081913 19.44838485-55.54968121 16.20000085-8.33984512-3.10401024-27.9570523-13.69210994-30.01901966-44.77645937-1.54618425-23.39883805-8.12561522-44.2210907-20.60685768-64.12122112C644.41411243 741.32098731 517.88085475 863.44738816 475.13725383 884.93445347c-28.21785486 14.19042816-48.82471253 6.52703858-58.58965618 0.69508438-9.9966373-5.96002589-26.91500829-20.90258887-27.89301703-54.03144078-3.52664917-120.02368398-67.43364039-238.88889401-106.5923766-306.42732146-10.65679303 20.10388253-23.04605639 42.33260373-36.1758117 62.19198464-12.56274375 18.99663815-28.80233131 21.85847581-37.36339229 21.87011868-0.02328576 0-0.04075065 0-0.0640364 0-10.72665031 0-26.22574592-4.13557646-39.31475058-23.78654834C39.47667456 390.77154019 26.96632434 210.57592320000003 132.95675961 64.35094301000004c6.96132039-9.60310613 17.8276864-14.70504619 28.84308082-14.69922532 7.2395867 0 14.54903069 2.20051797 20.85601735 6.77037625 15.91009166 11.53699954 19.46002773 33.78900651 7.92884907 49.69909817-99.91514453 137.83390549-51.33842659 291.88411278 17.05692273 406.9327633 9.37141134-16.73790578 18.00698766-33.50608327 25.11384463-47.30181518 3.53247118-6.85187641 6.64928939-12.90388253 9.26080341-17.79275662 7.5935323-14.23583573 22.32768626-23.14967837 38.45782983-23.25446542 16.32108771-0.38771029 30.98654834 8.61811143 38.7593819 22.76196807 3.44631296 6.26623602 8.0790437 14.14385664 13.54075136 23.43958755 38.12134912 64.87451989 115.70298539 196.91605789 126.05356828 339.69006706 48.38460985-38.58473757 159.46650738-160.69949554 173.68487823-265.94827605 2.14346752-15.84605525 12.79443854-29.02238322 27.79521593-34.38628978 15.16843577-5.40931527 31.95291307-1.92341561 43.80310869 9.12225166 34.00905842 31.66998983 56.52768882 65.78383531 68.06585344 103.40104306 81.61242567-101.00376007 196.6901851-322.04866901 46.37503602-515.73264384-12.04696064-15.52820338-9.23169565-37.87801145 6.29534379-49.93079296 15.52820338-12.03531776 37.87801145-9.23751651 49.93079296 6.29534379C1053.39719907 293.57269561 925.16639971 572.4318401400001 795.39523698 703.72007822zM749.08423737 25.48095317000002c-74.87115719-53.51682162-148.90169458-78.94269725-232.96961878-80.01384903-86.0833189-1.21668835-179.23973006 29.19702755-242.71709638 79.05214123-15.45252409 12.14010482-37.82678187 9.44592555-49.96572274-6.00659854-12.14010482-15.45834496-9.45174755-37.82678187 6.00659854-49.96572274 74.35537522-58.3987109 182.04801024-94.27879139 282.28682866-94.2787914 1.76623616 0 3.53247118 0.01164288 5.29404928 0.02910777 97.93933539 1.25045305 187.38863104 31.76779093 273.45448618 93.28914091 15.98577095 11.42755555 19.68590051 33.65045589 8.25368804 49.64204772C787.29290752 33.218858100000034 765.06302237 36.92015160999995 749.08423737 25.48095317000002z"  horiz-adv-x="1024" />

    
    <glyph glyph-name="bar-chart" unicode="&#58900;" d="M1024 128v-73.142857q0-14.857143-10.857143-25.714286t-25.714286-10.857143H36.571429q-14.857143 0-25.714286 10.857143t-10.857143 25.714286v73.142857q0 14.857143 10.857143 25.714286t25.714286 10.857143h950.857142q14.857143 0 25.714286-10.857143t10.857143-25.714286z m-219.428571 219.428571v-73.142857q0-14.857143-10.857143-25.714285t-25.714286-10.857143H36.571429q-14.857143 0-25.714286 10.857143t-10.857143 25.714285V347.42857100000003q0 14.857143 10.857143 25.714286t25.714286 10.857143h731.428571q14.857143 0 25.714286-10.857143t10.857143-25.714286z m146.285714 219.428572v-73.142857q0-14.857143-10.857143-25.714286t-25.714286-10.857143H36.571429q-14.857143 0-25.714286 10.857143T0 493.714286V566.857143q0 14.857143 10.857143 25.714286t25.714286 10.857142h877.714285q14.857143 0 25.714286-10.857142t10.857143-25.714286z m-219.428572 219.428571v-73.142857q0-14.857143-10.857142-25.714286t-25.714286-10.857142H36.571429q-14.857143 0-25.714286 10.857142T0 713.142857V786.285714q0 14.857143 10.857143 25.714286t25.714286 10.857143h658.285714q14.857143 0 25.714286-10.857143t10.857142-25.714286z"  horiz-adv-x="1024" />

    
    <glyph glyph-name="envelope-o" unicode="&#58987;" d="M950.857143 36.571429V475.428571q-18.285714-20.571429-39.428572-37.714285-153.142857-117.714286-243.428571-193.142857-29.142857-24.571429-47.428571-38.285715t-49.428572-27.714285T512.571429 164.571429h-1.142858q-27.428571 0-58.571428 14T403.428571 206.285714t-47.428571 38.285715q-90.285714 75.428571-243.428571 193.142857-21.142857 17.142857-39.428572 37.714285v-438.857142q0-7.428571 5.428572-12.857143t12.857142-5.428572h841.142858q7.428571 0 12.857142 5.428572t5.428572 12.857143z m0 600.571428v14l-0.285714 7.428572-1.714286 7.142857-3.142857 5.142857-5.142857 4.285714-8 1.428572H91.428571q-7.428571 0-12.857142-5.428572T73.142857 658.285714q0-96 84-162.285714 110.285714-86.857143 229.142857-181.142857 3.428571-2.857143 20-16.857143t26.285715-21.428571 25.428571-18T486.857143 242.857143t24.571428-5.142857h1.142858q11.428571 0 24.571428 5.142857t28.857143 15.714286 25.428571 18 26.285715 21.428571 20 16.857143q118.857143 94.285714 229.142857 181.142857 30.857143 24.571429 57.428571 66T950.857143 637.142857z m73.142857 21.142857v-621.714285q0-37.714286-26.857143-64.571429t-64.571428-26.857143H91.428571q-37.714286 0-64.571428 26.857143T0 36.571429V658.285714q0 37.714286 26.857143 64.571429t64.571428 26.857143h841.142858q37.714286 0 64.571428-26.857143t26.857143-64.571429z"  horiz-adv-x="1024" />

    
    <glyph glyph-name="long-arrow-up" unicode="&#59075;" d="M643.954951 614.285714q-5.142857-10.857143-16.571428-10.857143H499.383523v-713.142857q0-8-5.142857-13.142857t-13.142857-5.142857H371.383523q-8 0-13.142857 5.142857t-5.142857 13.142857V603.428571H225.097809q-12 0-16.571429 10.857143t2.857143 20L411.383523 853.714286q5.714286 5.714286 13.142857 5.714285 8 0 13.714286-5.714285l202.857143-219.428572q7.428571-9.142857 2.857142-20z"  horiz-adv-x="1024" />

    
    <glyph glyph-name="r-hide" unicode="&#59140;" d="M645.15250828 728.28457597q18.03106895 0 31.20761818-13.17655043l310.68918519-310.68918519q13.17655043-13.17655043 13.17655043-31.20761939t-13.17655043-31.2076194L676.36012646 31.314416370000004q-13.17655043-13.17655043-31.20761818-13.17655044t-31.20761939 13.17655044-13.17655044 31.20761941l0 621.37837035q0 18.03106895 13.17655044 31.20761941t31.20761939 13.17655043z m-266.30501656 0q18.03106895 0 31.20761939-13.17655043t13.17655044-31.20761941L423.23166155 62.52203578000001q0-18.03106895-13.17655044-31.20761941T378.84749172 18.137865929999975t-31.20761818 13.17655044l-310.68918519 310.68918519q-13.17655043 13.17655043-13.17655043 31.2076194t13.17655043 31.20761939l310.68918519 310.68918519q13.17655043 13.17655043 31.20761818 13.17655043z"  horiz-adv-x="1024" />

    
    <glyph glyph-name="check-square" unicode="&#59040;" d="M874.47071645 21.529283549999946H149.52928355V746.47071645h517.81530904V850.03377778H149.52928355c-57.47749925 0-103.56306132-46.08556206-103.56306133-103.56306133v-724.9414329a103.56306132 103.56306132 0 0 1 103.56306133-103.56306133h724.9414329a103.56306132 103.56306132 0 0 1 103.56306133 103.56306133v414.25224772h-103.56306133m-574.25717809 47.63900798L227.20157984 409.89076502 460.21846873 176.87387614 978.03377778 694.68918518l-73.01195853 73.52977423L460.21846873 323.41560889000004l-160.00493037 160.00493036z"  horiz-adv-x="1024" />

    
    <glyph glyph-name="comments-o" unicode="&#59082;" d="M512-116.62222186999998a45.51111147 45.51111147 0 0 0-45.51111147 45.5111104v136.53333334H284.4444448a91.02222187 91.02222187 0 0 0-91.02222293 91.02222293V611.5555552000001a91.02222187 91.02222187 0 0 0 91.02222293 91.02222293h637.1555552a91.02222187 91.02222187 0 0 0 91.02222187-91.02222293v-455.1111104a91.02222187 91.02222187 0 0 0-91.02222187-91.02222293h-186.5955552l-168.39111147-168.84622187c-9.10222187-8.64711147-20.48-13.19822187-31.85777813-13.19822187H512m45.51111147 273.06666667v-140.17422293L697.68533333 156.44444480000004H921.6V611.5555552000001H284.4444448v-455.1111104h273.06666667M102.4 247.46666667H11.37777813V793.6a91.02222187 91.02222187 0 0 0 91.02222187 91.02222187h728.17777813v-91.02222187H102.4v-546.13333333z"  horiz-adv-x="1024" />

    
    <glyph glyph-name="commenting-o" unicode="&#59083;" d="M366.36444445-101.45185222999999a48.54518557 48.54518557 0 0 0-48.54518557 48.54518556v145.63555556H123.6385189a97.09036999 97.09036999 0 0 0-97.09037113 97.09036999V772.3614811a97.09036999 97.09036999 0 0 0 97.09037113 97.09037113h776.7229622a97.09036999 97.09036999 0 0 0 97.09037113-97.09037113v-582.54222222a97.09036999 97.09036999 0 0 0-97.09037113-97.09036999h-296.12562887l-179.61718556-180.10263666c-9.70903666-9.22358557-21.84533333-14.07810333-33.98163001-14.07810446H366.36444445m48.54518556 291.27111111v-149.51916999L564.4288 189.81925888H900.3614811V772.3614811H123.6385189v-582.54222222h291.27111111m339.81629554 242.72592669h-97.09037V529.6355555499999h97.09037v-97.09036998m-194.18073998 0h-97.09037114V529.6355555499999h97.09037114v-97.09036998m-194.18074112 0H269.27407445V529.6355555499999h97.09037v-97.09036998z"  horiz-adv-x="1024" />

    
    <glyph glyph-name="home" unicode="&#59297;" d="M414.90963001-4.361481099999992v291.27111111h194.18073998v-291.27111111h242.72592668v388.3614811h145.63555556L512 820.90666667 26.54814777 384h145.63555556v-388.3614811h242.72592668z"  horiz-adv-x="1024" />

    
    <glyph glyph-name="pencil-square-o" unicode="&#59452;" d="M874.47071645 21.529283549999946V746.47071645H149.52928355v-724.9414329h724.9414329m0 828.50449423a103.56306132 103.56306132 0 0 0 103.56306133-103.56306133v-724.9414329a103.56306132 103.56306132 0 0 0-103.56306133-103.56306133H149.52928355a103.56306132 103.56306132 0 0 0-103.56306133 103.56306133V746.47071645a103.56306132 103.56306132 0 0 0 103.56306133 103.56306133h724.9414329m-119.09752179-328.81272059l-51.78153005-51.78153127-106.15213869 106.15213869 51.78153127 51.78153005c10.87412148 11.39193719 28.99765689 11.39193719 39.87177836 0l66.28035911-66.28035911c11.39193719-10.87412148 11.39193719-28.99765689 0-39.87177836M253.09234608 231.76229924999996l313.79607703 313.79607705 106.66995319-106.66995319L359.76229925 125.09234607999997H253.09234608v106.66995317z"  horiz-adv-x="1024" />

    
    <glyph glyph-name="qq" unicode="&#59494;" d="M83.83146667 309.24041443c28.15620779 66.99235555 67.47780779 116.50844445 96.6049189 127.18838557-0.48545223 38.83614777 6.79632555 63.10874112 18.93262222 82.52681443 0 1.45635555-2.91271111 17.47626667 7.76722887 37.37979336C214.41801443 731.09807445 328.01374777 869.45185223 512 869.45185223s297.58198557-138.35377778 304.86376334-313.11644444c10.67994112-19.90352555 7.76723001-35.92343666 7.76722887-37.37979336 12.13629667-19.41807445 19.41807445-43.69066667 18.93262222-82.52681443 29.12711111-10.67994112 68.44871111-60.19603001 96.6049189-127.67383666 36.40888889-85.43952555 42.23431111-167.48088889 13.1072-182.04444444-19.90352555-9.70903666-51.45789667 14.56355555-81.07045888 57.28331776-11.65084445-47.5742811-40.77795555-91.26494777-82.04136334-125.73202887 43.69066667-16.01991111 71.84687445-42.23431111 71.84687446-71.84687446 0-48.54518557-76.70139221-87.86678557-170.87905224-87.86678556-85.43952555 0-154.85914112 32.03982222-168.93724444 72.81777778h-20.38897778c-14.07810333-40.77795555-83.4977189-72.81777778-168.93724444-72.81777778-94.17765888 0-170.87905223 39.3216-170.87905224 87.86678556 0 29.61256334 28.15620779 55.82696334 71.84687446 71.84687446-41.26340779 34.4670811-70.3905189 78.15774777-82.04136334 125.73202887-29.61256334-42.71976334-61.16693333-66.99235555-81.07045888-57.28331776-29.12711111 14.56355555-23.30168889 96.6049189 13.1072 182.52989553z"  horiz-adv-x="1024" />

    
    <glyph glyph-name="volume-high" unicode="&#59685;" d="M622.46726541 868.39896115v-113.78128468c159.62519958-47.50092388 276.16816418-195.52706053 276.16816547-370.61767647s-116.5429659-322.56441583-276.16816547-370.065341v-114.33362015c220.93453212 50.26260639 386.63543088 247.99901138 386.63543089 484.39896115 0 236.39994847-165.70089876 434.13635476-386.63543089 484.39896115M760.55134815 384c0 97.76353027-55.23363335 181.71865188-138.08408274 222.5915411V163.06546788000003c82.85044939 39.21587894 138.08408273 123.72333731 138.08408274 220.93453212M14.8973037 549.70089876v-331.40179752h220.93453212l276.16816418-276.16816418V825.86906294L235.83183582 549.70089876H14.8973037z"  horiz-adv-x="1024" />

    
    <glyph glyph-name="new" unicode="&#59098;" d="M896 704H128C57.6 704 0 646.4 0 576v-448c0-70.4 57.6-128 128-128h768c70.398 0 128 57.6 128 128V576c0 70.4-57.602 128-128 128zM320 192h-64L128 405.334V192H64V512h64l128-213.334V512h64v-320z m256 256H448v-64h128v-64H448v-64h128v-63.998L384 192V512h192v-64z m384-256h-95.998L800 320l-64-128h-96V512h64v-256l64 128h64.002L896 256.004V512h64v-320z"  horiz-adv-x="1024" />

    
    <glyph glyph-name="star-super" unicode="&#58926;" d="M976.27065594 747.35272781l-68.77299094 33.73305938-33.16681031 68.21049187c-5.06061469 9.55498125-15.17997001 14.05497281-25.29745031 14.05497188-10.11748031 0-20.23871062-4.49999156-24.73682719-14.05497188L790.56726875 781.08578719l-66.33737063-33.73305938c-9.55873125-4.49624156-15.74246906-14.05497281-15.74246906-24.73495124s6.18373781-20.80120969 15.74246906-25.29557626l66.33737063-33.17056031 33.72930844-66.89986875c4.49999156-9.55498125 14.05497281-15.17997001 24.73682719-15.17997094 10.68185438 0 20.80120969 5.62311375 25.29745031 15.17997094l33.16681031 66.89986875 68.77299094 33.17056031c9.55873125 4.49624156 15.17997001 14.61372187 15.17997 25.29557626s-5.61936375 20.24058562-15.17997 24.73495124zM299.78322688 747.35272781l-66.89986969 33.73305938L199.71654781 849.29627906C194.65780719 858.85313531 184.53845187 863.35125094 174.41909657 863.35125094s-20.23871062-4.49999156-24.73495126-14.05497188l-33.73118437-68.21049187L47.74246906 747.35272781C38.18373781 742.85836125 32 733.297755 32 722.6177765699999s6.18373781-20.80120969 15.74246906-25.29557626l68.21049188-33.17056031 33.72930937-66.89986875c4.49999156-9.55498125 14.05497281-15.17997001 24.73495125-15.17997094s20.80120969 5.62311375 25.29745125 15.17997094l33.16680938 66.89986875 66.89986968 33.17056031c9.55873125 4.49624156 15.17997001 14.61372187 15.17997001 25.29557624s-5.61748875 20.24058562-15.178095 24.73495126zM990.62750281 481.54012219a28.11369469 28.11369469 0 0 1-22.70058094 19.1324625l-298.16941781 43.06866562L537.25338781 812.23135125a28.05932063 28.05932063 0 0 1-25.19807531 15.67309406c-0.12 0-0.21-0.091875-0.32999906-0.091875l-28.10807063-43.01241562v-381.21300563l28.10807063-32.33056125 59.54800875-14.34372281 369.11552906 85.33670906 50.23865156 39.29054813zM767.23106375 243.73996124999996c140.65472531 137.10535687 105.49854375 101.00980313 216.28645312 209.00396719a28.11181969 28.11181969 0 0 1 7.10998594 28.79431875l-478.90218937-110.28353438 2.23124531-46.303035 234.1570425-368.53428 58.56176062-46.47553406a28.09494469 28.09494469 0 0 1 11.17310344 27.47807063l-50.61740156 306.32002687zM806.86848688-90.24751125c-8.99248219-6.18561281-20.23871062-6.74623687-29.79744188-1.68937125L512.28781156 56.25157780999996h-0.56249812l-264.78698343-148.18846031c-9.55498125-5.05686469-20.80120969-4.49811655-29.23119282 1.68937125l6.18373781 38.227425 243.42514969 397.98109781 44.40928875 25.29370125 295.14317344-461.50222406zM33.45499719 481.54012219a28.10994469 28.10994469 0 0 1 7.10998594-28.79431874c110.76728343-107.97728906 75.70485188-71.96985937 216.28645312-209.0039672L206.26028469-62.580065630000036a28.09119469 28.09119469 0 0 1 11.17310344-27.47807062l294.29192531 461.31284906-43.06491655 38.077425-365.9599097 88.6254525-69.24549-16.41746812zM511.72531344 827.81444531c-10.56185438-0.136875-20.19933562-6.08061281-24.86807719-15.58121906l-132.53036624-268.48822594-298.16941688-43.07241562A28.11556969 28.11556969 0 0 1 33.45687219 481.54012219l478.27031625-110.28353438V827.81444531zM806.86848688-90.24751125c-8.99248219-6.18561281-20.23871062-6.74623687-29.79744188-1.68937125L512.28781156 56.25157780999996h-0.56249812V371.25471281l295.14317344-461.50222406z"  horiz-adv-x="1024" />

    
    <glyph glyph-name="panyi" unicode="&#58882;" d="M469.7 887.1c4.5 0.8 9.1 1.2 13.7 1.2 2.4-9.2 15.2-11.7 14.8-21.5-5.4 0.3-11.5-1.4-16.3 1.8-7.9 3.3-4.8 14.4-12.2 18.5zM769.6 434.4c-0.5 1.2-1.2 2.4-2 3.7-2.4 2.5-5 5-5.7 8.5-0.3 0.5-0.5 1-0.6 1.7-3.7 4.6-8.1 10.9-3 16.4 6.5 9.6 9.8 20.9 8.4 32.6-11.7 17.3-11.3 38.6-15.6 58.3-0.1 21.6-3.1 43.2-2.8 64.7 0.3 5 0.9 10 1.8 15-4.2 7.4-6.4 15.7-10.5 23.1-7.2 8.4-20.7 13.3-20.1 26.2-3 4.2-3.3 9-1 14.4-11.6 1.7-17.2 13.6-18 24.4-6.1 15-17.3 27.5-21.5 43.4-5.4-5.1-11.3 1.4-13.9 6-3.1 4.1-4.4 9.3-7.7 13.4-15.4 12.9-19.8 33.4-29.8 50.1-3.7 9.6-12.9 15.3-19 23.2-2.3-6.1-4.9-12.2-6.5-18.6 0.4-10.3 17.9-7.5 11.9-20.4-9.4 0.3-15.3 9.9-25.1 9.3-16.6 9-38.1 15.5-44.8 35.1-8.7 0.2-16.7 4.5-24.9 7.2-10.5 8-22 15.5-35.7 16.2 2.4-9.2 15.2-11.7 14.8-21.5-5.4 0.3-11.5-1.4-16.3 1.8-7.9 3.4-4.8 14.4-12.2 18.5-27.5 1.2-52.5-12.3-79.5-14.6-9.9-7.4-20.9-20.9-34.4-15.6-15.9-15-36.7-22.8-53.7-36.2-12.7-11-30.1-12.9-43.7-22.3-3.8-2.7-2.1-8.1-3-12.1 8.8-22.4 32.6-32 50.7-45.3 26.1-11.6 46.8-31.5 68.4-49.6 6.2-4.9 6.9-13.7 9.6-20.6-1-10.2 10.8-10.4 14.4-17.5 4.5-10.1 20.1-13.6 17.5-26.6-16.3-0.9-29.4 9.9-42.8 17.2-13.2 7.7-22.7 19.8-32.1 31.6-1.9 4.8-1.7 11-5.5 15.1-3.9 0.6-8.9 1-8.8-4.3 2.1-21.1 26.8-31.9 27.1-53.7 0.5-5.8-0.3-11.8-2.8-17.1-19.1-25.9-44.2-47-62.5-73.3-1.1-12.4-1.1-29.3-15-34.7-13.2 0.3-23.3 9.9-35.8 12.9-5.2 0.3-10.2-1.6-15.3-1.1-5.8 2.1-5.9 10.8-12.7 11.4-16.5-4-32.3 8-49.1 3.3-5.4-1.9-10.3-6.5-16.3-4.9-6.4 8-12 19.4-6 29.3 9.1 6.4 19.6 13.1 31.5 10.3 11-2.1 22.7-0.7 33.3-4.7 5.9-1.8 12.3-7.4 18.2-2.6 5.4 10-4.7 25.6 7.2 32.8 11.7 5.1 26.3-3.9 37.2 5-2.1 10 0.5 22.1-7 30.3-5 8.4-17.1 18.4-10.4 29.1 12.4 2.7 7.4-16.1 17.4-17.8 4.6 4.4 1.9 11.8-1.8 16-5.8 6.8-5.3 16.7-10.3 23.9-14.3 2.8-9.7-20.2-21.7-23.8-6.6-7.5-18.3-7-25.9-1.7-1.1 7.4 8.2 13 4.8 20.3-2.1 6.3-3.3 16.7-12.5 13.1-5-11.2-4.6-26 4.3-35.1 9-8.4-4.4-18.5-6.3-26.8-1.3-6.6-11.5-4.6-15.7-5.4-5.7 5.3-13.5 10.7-12.8 19.4-3.9-0.1-8.4 0.9-11.5-2.2-16-13.2-33.9-23.7-51.6-34.4-9.6-6.9-1.9-18.2 3.8-24.9 5.6-1.8 5.2 6.7 7.9 9.8 3.5-2.4 6.4-5.9 7.4-10.1-4.8-15.3-16.9-28.1-31.7-34.1-11.6-4.5-21.6-16.3-35.3-11.1-12.2 8.1-27.4 8.4-39.5 16.4-5.8 0-11.5-0.8-17.3-1.4v-7.7c8-0.7 17.4 1.8 23.4-4.9 8.7-8.9 22-7.8 32.5-13.5 7.4-3.9 14.1 5.9 21.6 3.8 5.2-2.6 9.1-7.1 12.9-11.4 18.2 4.3 36.1 12.4 55.3 9.7 7.1-4.9 14.8-12 24.2-9.2 6.3 4.6 14.7 7 22 3 3.1-10.6-14.3-5.2-14.4-15.7 3.7-1.6 7.2-3.6 10.6-5.7 3.8-1.4 8-2.6 10.7-6 1.9-1.6 3.4-3.7 3.2-6.3 1.3-14.1 3-28.4 8.9-41.4 5.6-9.2 0.6-21.5 8-29.9 11.5-14.3 4-36 15.1-50.7 8.2-11.8 11.4-26.1 17.2-39.1 4.8-9 10.6-17.8 11.9-28.1 2.8-11.5 11.3-20.5 17.3-30.4 3.9-5.5 2.2-13.7 8.1-17.9 4.5-2.9 11.4-3.9 10.2-10.9 1.3 4.4 4.6 9.1 2.8 13.8-5.9 7.1-15.1 12.2-15.6 22.6-5.3 12.5-2.3 27.4-11.6 38.2-7.4 7.6-1 17.6-3.3 26.5-4.7 22.5-5.6 45.6-9.8 68.1-2.1 28-3.4 57.3 5.8 84.4 6.1 3.3 6.3 13.5 12.7 14.7 6-5.4 0.4-12-5.3-14.5-6.2-8.4 0.9-9.6 5.3-10.8 7.4 3 8.5 12.5 15.2 16.6 4.3 2.3 5.8 8.8 11.2 8.7 11.7-5.4 9.7 8.8 17.4 10.8 24.6 11.9 52.4 6 78.7 9.5 11.8-0.7 30.4 8.2 23.5 23.2-3.3 9.5-13.8 13.9-23.4 12.4-17.3-2.8-35.5 0.5-52.3-5.3-7.3-1.2-15.5-0.1-21.8 3.9 2.2 14.3 18.8 16.4 30.3 19.1 11.7 0 21.8 5.6 32 10.3 10.5 4.2 15.3-8 23.7-9.8 6.4-3.5 10.2 1 13.9 4.4-2.3 4-7.6 6.3-7.9 11.3 6.3 5.6 17.3 6 22.5-1.2 4-5.1 11.3-10.5 9.2-17.9-3.9-1.7-8-2.9-11.9-4.8 3.2-4 6.4-9.9 13.4-4.9 12.9 3.5 22.9 13.2 34.1 19.9 0.2 1.3 0.6 4 0.8 5.4-8.7 0.1-7.7-16.8-19.7-9.9-5 8.6-3.1 20.4 4.9 26.4 10.2 4.8 24.3 0.6 28.6-10.7 4.6-13-13-15.5-14.2-26.1 17 3.2 22 22.1 35.2 31 1.2 4.1-2.8 8.4-2.8 12.7 2.7 3.7 7 4.5 11.2 4.9-1 4-1.5 8.2-3.8 11.6-9.8-0.3-11.4-10.6-14.3-17.9-6.2-2.1-11.8 5.3-7.5 11.8-2.9 11.4 10.5 18 6.6 29.7 0.4 11.1 15.9 13 12.4 25.5 4 6.1 5.9 15.6 13.6 18.1 11.9 2.4 24.3 3 36-0.6 7.1-1.9 16.5 4.7 21-3.2 1.5-9.3-11.4-9.9-15.5-15.6-2.1-9.6-12.4-15.3-21.7-15.8-6.4 6 2.1 23.8-10.1 21.7-3.9-8.7-9-16.9-12.4-25.9-2.5-6.9-15.5-6.8-9.1-17.3 1-3.6 1.7-10.3 7-8.6 8.9 2.1 9.2 13.5 14.7 19.3 3.6 1.9 7.2 4.1 11.3 4.7 2.9-1.6 5.1-4.4 8.1-5.8 15.4 4.1 30.1 14.4 46.7 10.5 4.2-0.8 10-3.6 9.3-8.7-1.8-3.9-5.7-6.4-8.1-10 6.5-4 15.1 1.9 21.9-2.4 22.9-5.5 23-32.2 33.1-49 9.2-14.1 13.6-30.6 23.5-44.3 9.8-22.7 16.1-46.8 23.9-70.2 4.9-23.3 12.9-46.2 13.8-70.2-3.3-14.1 12.9-23.2 9.4-37.3-3.7-7.4-13.3-16.9-5-24.5 9.9-2.8 14.4 8.9 17.4 16.1 3.5 7 1.1 15.9 5.6 22.3 1.3 3.1 2.7 6.1 3.7 9.3 0.3 1.7 0.6 3.4 0.8 5.1 0.1 0.5 0.2 1.2 0.4 1.8-0.1 0.4-0.1 0.8 0 1.2 0.1 0.2 0.1 0.4 0.2 0.6 1.2 10.6 4.5 20.9 5.6 31.5-0.3 0.5-0.4 1.1-0.6 1.6zM236 638.8c8.1 0.6 12.9-7.7 16.1-14 1.8-3 3.3-7.7-0.5-9.8-12.3-3.7-17.1 15.1-15.6 23.8z m-97.6-36.3c12.1 3.6 14.4-13.7 9.2-21.6-12.1-3.8-13.1 14.2-9.2 21.6z m-22.7-71.4c-4.7-2.9-9.2-8.1-15.4-6.2-6.7 8.6 5.2 13.4 12.1 15.1 4.4 0.7 3.9-6 3.3-8.9z m352.8 80.2c-11.6 4-11.2 21.1-4.2 29.3 11 5.1 14.1-7.2 17.6-14 1.6-7.5-4.6-19.1-13.4-15.3zM598.1 804.7c-3.8-1.3-13.9 1.1-7.7 5.7 4 1.6 8.5-1.2 7.7-5.7zM355.8 856.9c8.9 10.1 21.4 14.2 34.4 15.6-9.9-7.4-20.9-20.9-34.4-15.6zM665 772.7c5.7 4.9 12.3 0.2 13.9-6-5.3-5.1-11.3 1.4-13.9 6zM718.4 698.9c3.9-3.2 4.2-8 1-14.4-3 4.2-3.3 9-1 14.4zM302.4 666.4c0.8 0 2.4 0 3.2 0.1 7.5-10.2 16.2-21.8 13.9-35.3-2.4-5.4-7.9-4.1-11 0-3.2 10.9-7.2 21.9-8.4 33.1 0.7 0.5 1.8 1.6 2.3 2.1zM750.1 635.2c3.3-4.5 3.1-11.8-1.8-15 0.2 5.1 0.8 10 1.8 15zM138.4 602.5c12.1 3.6 14.4-13.7 9.2-21.6-12.1-3.8-13.1 14.2-9.2 21.6zM70.4 596.3c6.4-0.1 14.6-3.4 11.3-11.3-8.7-6.4-19-12.7-29.8-14.4-1.6 7 5.9 10 9.5 14.6 3 3.8 5.4 7.9 9 11.1zM610.7 577.8c15.7 5.7 26.8-8.6 39.2-15.3 10.7-5 13.7-17 14.2-27.9-12.3-2-18.5 15.8-32.1 10-15.7-2.4-31.3-6.2-47.3-7-15.1-7.9-32.9-3.6-48.7-9.1-16.6 3.5-18.7 27.9-3.5 35.4 24.5 11.6 53.5 3.3 78.2 13.9z m-72.3-27.4c-4.6-2.9-3.2-13.4 3.5-11.7 8 0.9 3 13.4-3.5 11.7zM0 540.8c8-0.7 17.4 1.8 23.4-4.9 8.7-8.9 22-7.8 32.5-13.5 7.4-3.9 14.1 5.9 21.6 3.8 5.2-2.6 9.1-7.1 12.9-11.4-20.4-3.7-41.6-6.3-62.1-2-5.1 10.1-17.6 14.7-28.3 16.4v11.6zM0 529.2c10.7-1.7 23.1-6.3 28.3-16.4-9.7 0.9-18.7 5.1-28.3 6.4v10zM382.4 516.4c16.8-3.7 31.1-14.1 46.9-20.4 3.2-10.3 13.3-14.6 21.4-20.6 3.6-2.5 6.8 1.3 8.9 3.8-0.4 14-16.3 22.3-17.7 35.7 14.7-4.1 28.6-16.6 29.5-32.7 6.7-10.7 7.7-23.1 8.8-35.3 3.3-10.6 9.3-22.9 3.2-33.6-4.9-12.7-3.6-38.2-23.6-34.5 3.4 13.8 9.6 27.4 10.1 41.9-1.6 5.6 3 14.7-3.4 18.6-3.4 4.3-9.4-2.5-12.4 1.8 0.5 6.5 5.3 12.2 3.5 19.2-1.9 3-6.2 3.2-9.1 1.7-4.9-4.7-15.4-5.9-19.1 0.3-10.3 20.4-31.5 31.8-49.4 44.8-0.1 3.2-0.9 7.3 2.4 9.3zM548.7 508.1c12.9 7.8 16-14.9 29.1-7 3.3 0.8 7.5 3 9.9-0.7-1.5-4.1-6.7-10-1.3-13.4 18.6 2.5 37-1.2 55.6-0.4 6.8-0.5 17.6-6.9 12.6-14.6-5.8-9-12.3 7-20.1 2.1-13.4-9-27.5-18.5-44-20.1-4.8-3.3-6.5-10.1-12.6-11.4-4.1 0.9-8.3 3-12.1 0.2-4-0.9-0.1-5.5 0.9-7.5 6.9-4.5 14.3-8.5 21.1-13.1 1.3-3.9-1.1-8.8-5.7-7.6-11 4.9-19.6 13.8-27.6 22.5-1.5 4 5.3 6.8 4.8 11-3.1 10.3-17.3 6.4-23.3 14.4-7.6 3.1-11.4 12.6-8.1 20 2.1 11.9 11.6 19.3 20.8 25.6z m1.7-17.7c-3.3-2-3.7-7.9 1.5-5.7 6-0.2 3.5 7.8-1.5 5.7zM188.1 497c3.8-1.4 8-2.6 10.7-6-1-8.5-11.4 0.1-10.7 6zM761.2 448.9c0 0.8 0.8 1.1 1.4 0.9 1.5 3.8 3 7.5 6.4 10.1 0.3 12.1 4.8 26.3-2.3 37.3 1.4-11.7-2-23-8.4-32.6-5-5.5-0.7-11.8 3-16.4-0.1 0.2-0.1 0.5-0.1 0.7zM352.7 476c10.5 4.6 19.5-1.4 15.5-13.3 19.1-2.1 40 9.1 57.5-2.6-2.1-4.7 3.4-13.4-2.1-17.2-9-4.7-13 7.9-21.1 5.5-5.7-5.9-11-13.3-19.8-14.4-12.6-0.8-24.2-6.2-36.9-5.6 2.6-5.4 9.5-2.9 13.7-6.2 1.6-2.9 4.3-7.1 0.1-9.2-10.7-1.5-23.4-0.1-31.3 8.2-0.7 3.2 1.2 6.1 1.6 9.2-5.8 2.2-13.7 0.9-17.3 7-5.8 7.6 2.1 19.9 11.4 19.5 4.6 8 20.8-6.7 20 3.8l-10.3 0.5c4.8 6.4 12.7 9.7 19 14.8zM772.8 429.4c0.9-6.5 0.3-13.2 0-19.7-0.1-1.3-2.1-1.3-2 0 0.3 7.1 1.6 16.1-0.7 23.1-1.1-10.6-4.4-20.9-5.6-31.5 0.8 1.8 3 2.7 4.5 3.8 1.1 0.7 2.1-1 1-1.7-0.2-0.2-0.5-0.3-0.8-0.5 0.2-0.2 0.3-0.4 0.3-0.7 1 0.2 1.7-1.3 0.7-1.8-0.4-0.2-0.8-0.5-1.2-0.7 0.7-0.1 1.5-0.2 2.3-0.5 1.2-0.4 0.7-2.3-0.5-1.9 0.1-0.1 0.2-0.1 0.2-0.3 0.4-1.1 0.7-2.2 1-3.4 0 0 0-0.1 0.1-0.1 0.1 0.6 0.7 0.8 1.2 0.6 0.4 0.1 0.9 0 1.1-0.4 0.6-1 1.1-2.1 1.5-3.1 0 0 0.1 0 0.1-0.1-0.4 12.6 1.1 26.7-3.2 38.9zM450.4 378.29999999999995c9.5 4.5 5.8-11.6-2-7.3-4.6 2 0 5.4 2 7.3zM463.9 358.70000000000005c7.7 1.1 13-7.4 14.2-14-7.9-2.1-14 7.1-14.2 14zM436.3 356.5c5.5 1.4 9-7 4.9-11.2 1.2-8.8-5.6-14-9.2-20.8 0.1-5.1 4.3-8.9 6.8-13.1 8.2-6 19-5.4 28.6-6.2 3 1.7 8 2.9 6.6 7.3 0 4.8-5.4 4-8.6 3.3-7.9-5.8-17.4 4.7-13 12.3 4.9 5.4 11.3 10.9 19.6 8.5 7.1-3.2 13.4-8.2 20.7-11.2 5 0.3 10.5 1.1 15.3-1 0.6-5.7-6.6-8-9.1-12.4-6.5-12.4-16.5-24.3-14.7-39.2 1.7-8.7 11.3-10.5 17.5-14.5 9.6-5.8-5.3-21.5 3-26.9 8.1 0.9 17.5-8.6 25-2.3 9.7 7.4 23.7 3.2 34.4-0.4 3.5-2.2 11.1-4 9.7-9.6-3.9-6-12.9 2.3-17.7-0.5-25.6-0.3-51.3-3-76-10-9.4-6-20.8 4.4-29.4-2.7-5.3-3.9-13.1-5.8-14.5-13.1 4.5-3.5 11.2-2.6 15.3-6.8 3.2-4.5 8.9-3.8 14-3.2 1.7 3.8 3.3 7.7 5 11.5 10.9 1.9 16.7-18.1 7-23.4-16.1-1.7-38.6 1.3-44.2 19-5.2 4-17.6 5.2-15 14.2 8.9 7.2 20.5 10.8 31.1 15.1 9.9-0.2 19.2 3.1 27.2 8.6 15.8-5.6 16.7 14.1 10.8 22.2-7.4 5.9-6.8 18.1-16.7 21.2-9.1 1.7-1.4 11.4-2.5 17.3-10.4 1.5-23.1-3.5-31.8 4.4-10.3 9-9.1 22.8-9.5 35.1 6.5 8.6 2.3 20.5 9.4 28.5zM528.5 344.29999999999995c9.5 4.3 25-3.5 20.7-15-3.3-6.4 2.3-12.2 2.8-18.5-0.8-8.5-20.1-5.9-15.1 3.3 6.7 12.5-20.5 11.8-12.5 26.1 1.3 1.4 2.7 2.8 4.1 4.1zM506.3 298.4c9.3-1.8 16.4-19.3 5.2-23.1-10.8 1.5-14.8 17-5.2 23.1zM530.6 264.1c23.1-1 44.3-12.6 65.6-21.1 6.2-2.6 15.2-2.9 17.2-10.7-1.3-6.6-3.9-14.2-11.5-15.4-7-4.9-19 2.3-13.9 11.9 0.2 8.3-11.1 9.5-16.6 13.1-9 0.4-14.6 8-22 12.1-7.5 2.8-15.3 4.9-23.4 5-1 3.4 1.9 4.2 4.6 5.1zM462.4 240.39999999999998c2.5 1 5.2-0.9 5.5-3.5-2.5-1.7-5.2-3-8-4.3 0.1 2.9-0.4 6.2 2.5 7.8zM294.4 173.10000000000002c-1.5 18.9-0.1 37.9 3.3 56.5 4.1-5.4 7.9-11.9 4.9-18.8-5.8-30.3-1.8-61.4-0.2-91.9 2.8-16.1-1.2-33 5.1-48.6 3.7-66.4-18.1-131.1-13.6-197.6h-12c-3 66.9 19.4 132.5 14.4 199.4 3.9 26.6-4 53.3-2 80.1 1.5 7 1.5 14 0.1 20.9zM321.4 169.89999999999998c1.5 1.8 3.1 3.5 4.8 5.1 4-2.7 7.2-6.6 9.2-11 7-15.4 19.8-27 28.7-41.3 4.7-8.3 15.5-12.9 18.1-22.2-4.9 2.4-9.5 5.4-14.4 8-19 17.4-36.5 37.5-46.4 61.4zM294.4 173.10000000000002c1.4-6.9 1.4-13.9-0.1-20.9-0.2 7 0 14 0.1 20.9zM520.6 172.10000000000002c5.8 5 13.8-1.2 11-6.9-4.1-4-7.7-10.3-15.1-6.3-3.9 5.3-3 11.9 4.1 13.2zM697.6 128.89999999999998c0.9 9.6 1.5 22.3 12.3 26.2-0.3-11.3-2.6-22.5-1.5-33.9-9-43.6-20.1-86.8-36.7-128.3-11.5-39.5-22.1-79.5-28-120.2h-11.5c5.9 25.2 10 50.8 18.6 75.3 2.8 9.2 6.3 18.7 5.3 28.5-4.8-0.5-9.5-1-14.2-1.5 0.1 5.8 4.5 10.1 7.1 14.9 28.8 40.7 39.8 90.7 48.6 139zM387.9 84.79999999999995c6.9-2.2 15.5-7.3 13.8-15.9-2.2-9.9-0.2-21.4-6-30.2-11.4 0.7-3.3 18.9-6.9 26-0.8 6.7-0.8 13.5-0.9 20.1zM48.6 30.100000000000023c10.3 10.3 22.2 19.4 35.9 24.3-4.8-13.8-23.4-11.8-31.1-23.1-6.2-5.2-5.3-13.8-6.1-21.2-1.9 6.5-2.6 14.2 1.3 20zM84.5 54.5l3.2 0.8c0.5-6.6 0.4-13.2-0.2-19.8-7.2-5.2-15.5-8.5-23.1-13.2-4.8-4-5.1-10.8-8.7-15.6-2.8-0.1-5.4 0.8-8 1.7l-0.4 1.8c0.9 7.4-0.1 15.9 6.1 21.2 7.7 11.3 26.3 9.3 31.1 23.1zM725.5 30.399999999999977c-0.9 5.6-4.7 14 2.3 16.4 8.7-15.5 9-34.3 13.4-51.3 8.2-29-2.1-58.7-9.4-86.7-3.9-12.4-12.1-23.2-14.3-36.1h-19.8c8.3 12.5 21.1 22.3 25 37.4 7.8 21.2 15.5 42.8 14.7 65.8 2.5 19.2-9.8 35.9-11.9 54.5zM580.7 35.89999999999998c6.1 3.9 6.8-3.4 1.9-5.7-15-4.1-30.3-11.1-46.6-9.5 0 0.9 0.1 2.7 0.2 3.7 14.6 4.1 31.9 1.9 44.5 11.5zM234.3 28.5c5.6-1.4 8.3-9.9 3.3-13.6-7.2-1.7-8.3 10.1-3.3 13.6zM388.3 16.5c0.8 6.3 14.4 11.7 9-3 0.5-30.6-9-65.9 11.4-92.3 9.1-7.1 12.6-17.9 15.5-28.7-7.3 1.2-12.7 15.2-19.9 7.7-1.1-9.2 1.6-18.4 2-27.6h-15.8c-5.3 19.7-11.7 39.4-12.4 60-1.2 28.4 4.8 56.3 10.2 83.9zM234.4-5.600000000000023c1.3 0 3.9 0.1 5.2 0.1 2.2-6.4 7.6-12.3 6.2-19.5-10.6-6.9-17.1 13.2-11.4 19.4zM770.4-5.600000000000023c7.5 0.2 8.5-11.7 9.7-17.7-8.9-2.1-10.4 9.4-11.8 15.6l2.1 2.1zM883.3-7.7999999999999545c3.5 0.3 7 0.5 10.6 0.5 1.1-6 2.3-11.8 2.1-18.1-10-1.5-11.2 10.5-12.7 17.6zM48.5-13.299999999999955c7.6 0.6 13.7-8 12.5-15.2 1.4-32.8 2.7-66.1-1.2-98.8H44.5c1.8 10.6 1.7 21.4 1.7 32 2.8 13.8-6.9 24.5-12.3 35.9-7.2 14.7-18.8 28.1-33.8 34.8v5.8c18.7-0.5 25.8-19.8 38.5-30.2 3.1-0.3 7.7-1.6 8.9 2.3 6.9 9.8-1.6 21-3.7 30.9 1.1 0.6 3.5 1.9 4.7 2.5zM248.8-78.10000000000002c2 6.5 4.1 18 14.6 12.4 1.8-1.9 5.7-3.8 3.7-7-7.1-17.4-14.2-35.6-13.3-54.7h-10.4c6.6 15.8 4.2 32.8 5.4 49.3zM911.9-85.29999999999995c1.4-0.1 4.3-0.3 5.7-0.3 4.2-6.9 11.3-11.8 14.3-19.4-1.4-1.8-5-3.6-6.3-0.8-4.1 7.2-12.8 11.8-13.7 20.5zM954.4-105.39999999999998c3.2 0.1 7.5 1.2 9.3-2.3 0.9-6.5 0.2-13 0.4-19.5h-14.3c1.9 6.9 0 15.6 4.6 21.8zM780.5-119.60000000000002c6.5 2.4 10.4-3.6 14.1-7.7h-17.2c1 2.6 2 5.2 3.1 7.7z"  horiz-adv-x="1024" />

    
    <glyph glyph-name="py1" unicode="&#58883;" d="M357.6 454.3c-0.6 3.2-1.5 6.4-2.6 9.6-1.6 2.8-2.7 5.9-4 8.9-1.8 3.2-3.8 6.3-6.1 9.1-4.2 3.5-9.1 3.9-12.5 8.8-1.9 1-3.6 2.3-5.6 3.4-1.1 0.6-2.1 1.1-3 1.7-0.5 0.2-1.1 0.6-1.7 1-9.6 0.1-20.8 0.2-27.4-2.2v-4.3c6.3-4.6 14.7-10.4 22.8-15.1 2.5-0.9 5-2.6 7.3-3.7 1.4-0.6 3.7-1.2 4.9-2.4 0.1 0 0.1-0.1 0.2-0.1 0.1-0.1 0.2-0.2 0.3-0.4 0.1 0 0.1-0.1 0.2-0.1v-0.1c0.3-0.4 0.5-0.9 0.6-1.5 1.8-2.9 2-7.7 2.3-10.5 0.4-4.9 0.7-9.9 0.5-14.8-0.1-6.1-1.8-12.1-2.6-18.2-0.1-0.7-0.5-1.2-1.2-1.2-1.8-0.1-3.1 0.7-4.4 1.7-0.8 0.2-1.3 0.6-1.9 1.4-1 0.7-2.2 1.2-3.5 1.1-6.7-3.3-5.5-7-17-7.8 1.6 9.2 6.4 15.3 12.6 19.5-1.9 28.9-18.9 13.8-35.8 21.7-4.9 2.3-21.8 20.2-27 25.7l-0.8 0.2c-14.3-3.4-21-17.1-33.2-21.6-8.4-3-16 0.9-22.8 0-0.1-0.1-0.3-0.3-0.5-0.3-1.2-5.7-3.1-9.9 0.1-14.9 11.6-21.1 45.4 8.5 50.5 17.4 10.1-1.8 14.4-8.1 16.8-17.4 2.2-3.3 2.2-8.9 2.1-15.2-16-0.1-26.4-13.5-29.5-26-1.8-0.6-3.7-1.3-5.5-1.9-1.4-1.3-3.2 0.6-2.9 1.9 1.8 4.5 3.1 5.8 6.1 8.5 0.1 0.4 0.1 1 0.1 1.5-0.4 4.1-0.8 5.9-1.7 8.5-0.4 0.5-0.8 0.9-1.2 1.3-2.4 0.9-1.5 0.3-3.2 1.7-0.3 0-0.7 0.1-1 0.1-8.3 0.1-14.2-0.4-19.3-2.1-0.1 0-0.2-0.1-0.3-0.1-0.3-0.1-0.6-0.2-0.9-0.4-1.7-0.7-3-1.8-3.5-4 0.5-3.1 1-6.2 1.5-9.2 0.3-0.6 0.7-1.2 1.1-1.7 3.2-0.7 6.4-1.3 9.7-2-2-30.6 22-26.8 29.5-8.7 8.7-2.3 8.1-6.7 10.2-14.2 0.3-0.3 0.6-0.6 0.9-1 14-0.2 16.2 3.3 18.3 15.2 10.2-1.6 9.7-5.5 17.7-8.3l2.1 0.3c7.3 6.6 15.9 8.4 20.2 18.8 1.7-1.1 10.5-31.5 14.1-39.8 0.7-0.5 1.5-0.9 2.4-1.1 8.8 1.3 9 4.2 15 8.4 1.8 10.5-1.7 18.9 2.1 32.6 3.7 12.8 9.4 24.7 10.4 42.3z m-92.3-40c-3.6-1.4-2.1-0.4-4.2-2.2-2.5 2.5-4.5 5.5-6.3 8.7h8.5c0.1 0 0.1-0.1 0.1-0.1 0.7-0.4 1.2-1.2 1.6-1.9 0.1 0 0.1-0.1 0.2-0.2h0.1v-4.3z m21 6.5c-0.1 0-0.2-0.1-0.2-0.1-0.1-0.2-0.1-0.2-0.3-0.3-0.4-0.5-1-1.4-1.5-1.7h-2.2c0.8 4.5 0.5 4.2 2.1 6.5 0.8 8.1 1.6 8.1 4.2 13h4.2c-1.3-7.8-3.7-11-6.3-17.4zM355.8 366.5c-0.2 0.4-0.4 0.9-0.6 1.4-1.3 1-2.7 1.7-4.2 2.4-4.9-0.6-9.9-1.5-13.9-3.2-1-0.6-1.9-1.3-2.9-1.9-0.5-0.3-0.9-0.5-1.4-0.6-0.1 0-0.1-0.1-0.2-0.1h-0.6c-4.9-1.6-12 0-13.4 4.7-1.4 1.4-2.7 3.1-4.3 5.2-0.6 0.2-1.1 0.4-1.7 0.6-8.5-1.8-9.8-5.5-11.4-14 0.1-0.5 0-1-0.5-1.3-1.1-0.7-2.5-0.9-3.9-1-1.8-0.6-4.1-0.6-6.4-0.8-3.6-0.3-8.5-1.2-12 0.2-2.2 0.9-3.2 2.5-4.3 4.4-0.1 0.1-0.1 0.2-0.2 0.3l-0.6 0.9c-0.2 0.3-0.2 0.6-0.2 0.9-0.6 2-1 4.6-1.4 7.8-0.4 0.3-0.7 0.7-1.1 1-0.2 0.1-0.4 0.2-0.6 0.4-1.4 0.5-1.1 0.3-2.1 1.2-0.3 0.1-0.6 0.3-0.9 0.4-6.3-0.1-10.5-0.8-14.4-2.2 0.6-6.9 1.2-8.9 3.7-10.5 0.9-1.5 2.3-2.5 2.9-4.3 0.5-1.4 0.8-3.1 0.7-4.7-0.2-0.5-0.4-1-0.7-1.4-0.3-0.4-0.6-0.6-1-0.9-20.7-0.7-41.5-1.3-62.2-2-1.3-0.7-1.9-2.1-2.2-3.7v-7.5c0.1-0.8 0.4-1.6 0.8-2.3 0.8-1.1 2.2-1.8 3.7-2.3 14.7-2 31.2-2.5 47.9-1.6 0.4 0 1.5 0.2 2.4 0.2h0.2c0.2 0 0.4 0 0.6 0.1 0.1 0 0.2-0.1 0.2-0.2 0.3-0.1 0.4-0.2 0.4-0.4v-0.1c0-0.1-0.1-0.2-0.1-0.3-0.1-0.3-0.2-0.5-0.5-0.9-0.9-1.8-2.1-3.4-3.4-4.9-0.3-0.4-0.7-0.7-1-1.1-0.6-1.3-2.9-3.1-3.2-3.4-0.9-0.8-1.9-1.6-2.9-2.2-0.4-0.3-0.8-0.5-1.2-0.7-0.3-0.2-0.7-0.5-1-0.7-0.8-0.8-1.5-1.5-2.3-2.2-0.2-0.3-0.4-0.7-0.6-1v-4.8c0.4-1.2 1-2 2.4-2.6 0.8-0.3 1.7-0.5 2.6-0.6 18.5 1.7 28.6 15.6 32.9 30.2 9.3 1.4 18.6 2.7 28 4.1 0.3 0.2 0.6 0.2 0.9 0.1 0.2 0 0.4 0.1 0.6 0.1v-0.2c0.6 0 1.2-0.3 1.3-0.8 1.7-11 2.4-22.1 2.6-33.3 0.1-5.7-0.1-11.5-0.1-17.3 0.3-4.6 0.8-9.1 1.6-13.5 1.1-3.9 2.2-7.7 3.4-11.6 0.1-0.4 0.1-0.8 0.1-1.1 0.8-2 1.6-3.9 2.6-5.8 0.7 0 1.4 0.3 1.8 1.2 0.4 0.8 0.7 1.7 1 2.5 0.3 0.3 0.6 0.7 0.7 1.2 0.1 0.3 0.1 0.6 0.2 0.9 0.2 0.5 0.3 1.1 0.5 1.7 0.2 1.4 0.5 2.8 0.7 4.2 1.2 6.8 1.8 13.6 2.2 20.5 0.1 5-0.2 10.1-0.4 15.2-0.2 1.2-0.4 2.5-0.5 3.7-0.2 2.3-0.1 4.7 0.1 7.1-0.1 4.5-0.1 9.1 0.4 13.6v0.5c0.2 1.7 0.5 3.2 0.8 4.7v0.9 0.3c-0.2 2.2-0.2 4.4 0.4 6.3v0.2c0.1 1.3 0.4 2.2 1 2.8 0 0.1 0.1 0.1 0.1 0.2h0.1c0.2 0.2 0.4 0.3 0.7 0.4h1c0.3 0 0.7 0.1 1.1 0.1 0.1 0 0.1 0.1 0.2 0.1s0.1 0 0.2-0.1h1.1c11.2 0.2 22.8 2.1 25.8 4.3 4.5 2 3.1 1.9 6.3 4.3-0.4 5.5-0.4 9.6-2.4 12.6zM167.4 371.4c-19 3.7-35.6-1.6-53.8-2 0.1 6.3 0.3 12.8-2 16.2 1 7.9 1.9 6.5 4 12.1 25-3 37.2-11.7 57.8 0-0.7 7.6-1.5 7.5-4 12.1-17.1 0.5-30.2 0.2-47.8 0V418c4.1 0.8 3.8 0.5 6 2 12.1 1.3 16.1 7 23.9 12.1-2.6 22.7-23.1 3.8-37.9 2 1.8 9.2 5.7 9.9 9.8 16v0.1c0 0.2 0.1 0.4 0.1 0.7-0.1 0.6-0.1 1.2 0 1.7-2.5 6.1-7.4 8.2-13.8 9.9 0.8 3.9 22.8 28.3 27.4 32 0.2 0.4 0.3 0.7 0.5 1.1V507c-0.3 0.8-0.7 1.7-1.3 2.3-0.3 0.2-0.5 0.3-0.8 0.5-0.5 0.2-0.6 0.2-1.1 0.6h-0.1c-0.3 0.2-0.6 0.4-0.8 0.6-26.4-0.4-15.3-13.4-27.9-26.3-9.6-9.8-25.4-15-37.6-22.1l-0.3-0.6v-3.6c1.5-1.9 0.9-0.7 1.8-3.5 0.3-0.2 0.6-0.5 0.9-0.7 6.7-1.7 10.2-3.6 19.2-3.9v-6.1c-14.8-6.6-24.8-15.9-37.3-23.9l-0.3-0.9c2.9-8 15.8-16.9 25.7-9.6h2c-1.6-15.2-38.5-40-55.8-40.5 0.5 15.5 2.8 32.7-6.6 41.3-0.5 0.3-0.9 0.7-1.2 1-0.1 0-0.1 0.1-0.2 0.2v0.2c-0.1 0.2-0.1 0.4 0 0.7v11.4c0 0.1 0.1 0.2 0.2 0.3v0.2h0.1c3.8 6.5 17 9.8 21.6 15.7 5.4 6.9 8.7 16.1 15.3 21.7 0.2 0.4 0.4 0.7 0.6 1.2-0.6 11.2-10.7 23.8-21.9 15.6-1.9-0.6-3.8-1.3-5.7-1.9-0.1-0.2-0.2-0.4-0.2-0.5 0.6-7.8-0.4-7.2 5.9-9.7-0.8-17.7-20-33-31.5-40.4l-0.3-0.9v-19.3c0-0.2 0.1-0.4 0.1-0.5 0.9-2.4 5.2-9.1 5.9-11.9 5.3-21.8-8.4-60.2 4-74.9-0.2-14 1.4-18.8 6-26.3 7.2-1.3 8-0.9 15.9 0 1.6 9.9 8.9 40.8 14 48.6v8.1c-3.4 1.3-2 0.4-4 2-14-2.8-9.2-12.3-15.2-21.2 0-0.5-0.2-0.9-0.4-1.3 0-0.5 0-1-0.3-1.4v-0.4h-0.2c-0.4-0.5-1-0.8-1.8-0.8-2.2 0-2.8 2.3-2 3.8-0.1 0.5 0 1 0.2 1.4 0.2 2.5 0.5 3.6 1.5 5.3 0 0.4 0.1 0.9 0.2 1.3v19.4c1.2-3.8 16.5-1.7 19.9 0 14.8 7.1 36.9 18.8 45.8 32.4h4c-0.5-10.7-0.2-12.3 0-24.3-9-1.7-12.2-6.3-17.9 0-12.6-0.6-10.1-3.7-15.9-10.1-0.1-12.2 8.9-24.2 11.7-39.2 0.1-0.4 0.3-0.7 0.5-1.1 0.2-0.2 0.5-0.4 0.5-0.5 0.1-0.1 0.1-0.2 0.2-0.3 2.7-1.5 4.4-2.5 6.3-4.7 0.7-0.2 1.3-0.3 2.1-0.4 3.9 1.5 4.1 1.9 6.6 5.6l0.1 0.1c2.5 0.2 5.5-0.8 7.7-1.9 0.1 0 0.1-0.1 0.1-0.2v-0.1c-1.1-12.1-8.9-15.7-17.3-19.8-0.3-0.6-0.4-1.2-0.5-1.8 0.4-3.9 0.8-5.6 1.8-8.3 0.2-0.1 0.4-0.2 0.7-0.3 15.2-0.2 75.6-0.2 79.2 2 17.6 9.2 4.8 49.4 14 62.7 0.1 13.5-1.6 17.2-6.1 24.3z m-77.7 54.7h-4v4c3.3 0.7 6.6 1.3 10 2v-8.1c-4.1 0.9-3.9 0.6-6 2.1z m10-89.1c-5.8-0.1-10.9-0.1-14 2-1.4 2-1.3 1.9-1.8 5l-0.3 0.6c-0.2 0.1-0.1 0.3 0.1 0.4h0.1s0.1 0.1 0.1 0h0.8c6.7 0 12.8-0.5 17-2-0.7-1.9-1.4-3.9-2-6z m51.6 14.5c-1.3-11.8-2-26.6-1.8-40.8-5.3-0.6-9.3-1.6-12.6-3.6-0.8-0.8-1.6-1.6-2.6-2.2-0.8-0.6-1.8-0.4-2.8-0.3h-1.9c-1.4-0.1-0.8-0.2-2-0.1-0.2 0-0.4 0.3-0.2 0.4 0.2 0.1 0.3 0.2 0.5 0.4 0.2 0.1 0.3 0.3 0.5 0.4 3.9 5.3 8.7 7.8 11.1 15.1l0.2 0.2c0 1 0 2.3-0.3 3.1-0.1 0.2-0.2 0.4-0.2 0.7-5.7 4.5-13.6 8.8-17.6 14.3-0.9 1.5-0.5 3-0.2 6.3-0.1 1.3-0.1 2.7 0.1 3.6 0 0.1 0 0.2 0.2 0.2h0.5c8.9 1.2 17.7 2.4 26.6 3.6 0.9 0.3 1.7 0.5 2.5 0.4 0.1 0 0.1-0.1 0.1-0.1h0.1v-0.1c0.2-0.4 0-1-0.2-1.5zM654.1 380.79999999999995l-22.6-2.3-37.2 46.4c-8.1-12.3-16-22.4-23.6-30.3-7.7-7.9-17.5-15.6-29.4-23.1l-1.3 2c16.6 11.6 29.8 24.4 39.5 38.3 9.7 14 14.2 23.7 13.6 29.4l1.9 0.9 6.2-7.8c0.3-0.3 0.4-0.6 0.4-0.9 0-0.3-0.2-0.6-0.6-0.9-1.7-1.2-3.3-2.9-4.8-5l22.2-24.6c6.5-7.2 12-12.1 16.6-14.7 4.6-2.6 11-4.2 19.2-5v-2.4zM591 407.5l8.7-6.3c0.3-0.3 0.4-0.5 0.4-0.8 0-0.2-0.1-0.5-0.4-0.9-0.8-1.1-1.4-2.6-1.8-4.5-0.3-1.9-0.5-5.4-0.5-10.6v-32.2c0-13.6-0.3-21.7-0.8-24.3-0.5-2.6-1.1-3.9-1.7-3.9-0.3 0-0.5 0.3-0.8 0.9l-4.8 10.6c1.1 1.6 1.8 3.3 2.2 5.2 0.4 1.8 0.6 6 0.6 12.6v33c0 6.6-0.1 10.9-0.4 13.2-0.3 2.2-0.9 4.5-2 6.7l1.3 1.3zM779.1 336.70000000000005l-22.2-1.1-38.1 63.5c-4.1-14.7-10-27.4-17.6-38.1-7.6-10.7-17.8-20.7-30.4-30.1l-1.1 1.8c11.3 9.5 20.7 19.7 27.9 30.6 7.3 10.9 12.6 22.7 15.9 35.2 3.3 12.5 5 22.9 5 31.3 0 4.5-0.5 8.1-1.5 10.6l1.6 1 8.7-8.9c0.5-0.5 0.8-0.9 0.8-1.1 0-0.2-0.3-0.7-1-1.4s-1.3-1.8-1.8-3.3c-0.5-1.5-1.3-4.8-2.3-9.9-1-5.1-2-9.4-2.9-12.7l17-27.4c9.7-15.7 17-25.6 21.9-29.8 4.8-4.2 11.5-6.8 20.1-7.9v-2.3zM884.2 438.3l5.3-4.7c0.5-0.4 0.8-0.8 0.8-1.1 0-0.3-0.3-0.7-0.9-1.4-0.6-0.6-1.2-1.8-1.6-3.4-0.5-1.6-0.7-3.4-0.7-5.2v-71.6c0-9.2-0.4-15.4-1.2-18.7-0.8-3.3-1.5-4.9-2.1-4.9-0.3 0-0.6 0.3-1.1 0.9-6 6.6-12.2 12.9-18.8 18.8l1.3 1.6 15.5-11c1.1 1.8 1.6 7 1.6 15.4v75.4l-67.6-5.8v-70.5c0-9.7-0.1-15.4-0.2-17.1-0.1-1.8-0.3-2.6-0.6-2.6-0.2 0-0.5 0.3-0.9 0.9l-5.9 10.1c1.3 2.1 2.1 4.3 2.4 6.7 0.3 2.3 0.5 5.8 0.5 10.5v54.8c0 6.9-0.8 13.6-2.5 20l2 0.6 4.7-9.3 65.7 6.2 4.3 5.4z m-37.3-57.4c-0.2-3.7-0.5-6.2-1-7.5-0.5-1.3-0.9-1.9-1.1-1.9-0.3 0-0.5 0.2-0.8 0.8-1.9 3.9-4.7 8.4-8.2 13.7-6-14.5-11.6-24.7-16.8-30.5l-1.3 0.9c6.2 11.2 11.3 22.4 15.3 33.8-3.4 4.9-7.2 10.1-11.5 15.6l1.3 1.1 11.6-12.6c2.4 8 3.5 14.2 3.5 18.8 0 0.9 0 1.7-0.1 2.4l1.6 0.3 5-7.3c0.4-0.5 0.6-0.9 0.6-1.2 0-0.3-0.2-0.6-0.6-0.8-0.9-0.8-1.8-2.3-2.6-4.5l-4-11.1 9.1-10z m28.4-7.4c-0.4-3.2-0.9-5.6-1.5-7.3s-1-2.5-1.4-2.5-0.7 0.4-1 1.3c-2.3 5.9-5.5 12.7-9.7 20.4-7.4-14-14.7-24.2-22.1-30.8l-1.3 0.9c7.7 9.3 14.6 20.8 20.7 34.4-2.8 4.8-5.8 9.6-9.2 14.4l1.5 1.3 9.1-12.2c4.9 12.2 7 20.8 6.4 25.8l1.3 0.3 5.3-7.2c0.4-0.6 0.6-1 0.6-1.3 0-0.3-0.3-0.7-0.9-1.2-1.3-1.3-2.8-3.9-4.2-7.9-1.5-4-3.3-8.2-5.4-12.6l11.8-15.8zM971.9 404c0.3-0.2 0.4-0.5 0.4-0.8 0-0.2-0.2-0.4-0.7-0.5l-12-1.6 5.4-5.9c0.3-0.3 0.5-0.7 0.5-0.9 0-0.3-0.3-0.7-0.8-1.1-0.9-0.8-1.9-4.3-3.1-10.3-1.1-6-2.5-14.5-4-25.4l13.5 4.7 0.5-1.8c-26.4-11.4-40.2-17.9-41.4-19.3l-7.7 4.4 31.4 10.7c2.3 18 3.4 30.8 3.4 38.3 0 2.6-0.1 4.7-0.4 6.2-15.5-2.3-24.7-4.1-27.6-5.4l-5.7 4.3c14.2 2.1 24.6 3.8 31.2 5 6.6 1.2 10.7 2.4 12.3 3.5l4.8-4.1z m-24.3-33.5c-0.8-3.1-1.5-5.4-2.1-6.8-0.7-1.4-1.2-2.1-1.6-2.1-0.4 0-0.6 0.3-0.8 1l-6.9 26.2 1.8 0.6 9.6-18.9z m8 48.7c-0.2-2-0.5-3.8-1-5.4-0.5-1.6-0.9-2.7-1.3-3.4-0.3-0.7-0.6-1-0.8-1s-0.4 0.3-0.8 0.9l-10.5 19.2 1.3 1.1 13.1-11.4z m67.7-16c0.5-0.3 0.7-0.6 0.7-0.9 0-0.2-0.3-0.4-0.9-0.5l-29.1-3.9v-24.7l13.4 1.9 3.5 4.9 5.2-4.8c0.3-0.3 0.5-0.7 0.5-1 0-0.3-0.2-0.6-0.5-0.9-1.6-1.6-2.6-4.7-3.1-9.2l-2.3-19.2 4-4.7c0.4-0.4 0.6-0.8 0.6-1 0-0.2-0.3-0.4-0.9-0.5l-34.2-3c0.2-4.2 0-6.9-0.4-8.1-0.5-1.2-0.9-1.8-1.2-1.8-0.3 0-0.6 0.2-0.9 0.6l-4.4 8.5c1.8 2.5 2.4 6.3 2 11.5l-1.6 20.4c-0.5 5.4-1 9.4-1.5 12.2l1.6 0.5 3.9-8.6 11.6 1.6V419c0 9.7-1 16.6-2.9 20.5l1.6 1 8.3-7.4c0.3-0.2 0.5-0.6 0.5-0.9s-0.1-0.7-0.2-1.1c-0.8-1.4-1.4-3.8-1.9-7.1s-0.8-6.5-0.8-9.6v-12.5c13 1.7 20.9 3.5 23.6 5.4l5.8-4.1z m-14.8-32.7l-30-3.8 1.5-26.6 26.1 2.8 2.4 27.6zM443 498.5V317h-10.1c-2.7 0-5-1-6.8-3-1.8-2-2.7-4.5-2.7-7.5V278c0-2.9 0.8-5.3 2.4-7.2 1.6-1.9 3.7-2.9 6.3-2.9 0.7 0 4.4 0.5 10.9 1.7v-1.4h6.1V498.6c-2-0.1-4-0.2-6.1-0.1z m0-224.3c-4.9-0.3-7.7-0.5-8.5-0.5-3.4 0-5.1 1.9-5.1 5.6v26.1c0 3.8 1.7 5.7 5.1 5.7h8.5v-36.9zM495.7 294.4c0-3.5-1.7-5.2-5.2-5.2h-14.8c-3.4 0-5.2 1.7-5.2 5.2v34.5c0 3.5 1.7 5.2 5.2 5.2h14.8c3.4 0 5.2-1.7 5.2-5.2v-16.2l-2.1-2.2h-17.1v-16.3h13.2v8.2h6v-8z m-5.9 21V329h-13.2v-13.5h13.2z"  horiz-adv-x="1024" />

    
    <glyph glyph-name="py2" unicode="&#58884;" d="M357.6 454.3c-0.6 3.2-1.5 6.4-2.6 9.6-1.6 2.8-2.7 5.9-4 8.9-1.8 3.2-3.8 6.3-6.1 9.1-4.2 3.5-9.1 3.9-12.5 8.8-1.9 1-3.6 2.3-5.6 3.4-1.1 0.6-2.1 1.1-3 1.7-0.5 0.2-1.1 0.6-1.7 1-9.6 0.1-20.8 0.2-27.4-2.2v-4.3c6.3-4.6 14.7-10.4 22.8-15.1 2.5-0.9 5-2.6 7.3-3.7 1.4-0.6 3.7-1.2 4.9-2.4 0.1 0 0.1-0.1 0.2-0.1 0.1-0.1 0.2-0.2 0.3-0.4 0.1 0 0.1-0.1 0.2-0.1v-0.1c0.3-0.4 0.5-0.9 0.6-1.5 1.8-2.9 2-7.7 2.3-10.5 0.4-4.9 0.7-9.9 0.5-14.8-0.1-6.1-1.8-12.1-2.6-18.2-0.1-0.7-0.5-1.2-1.2-1.2-1.8-0.1-3.1 0.7-4.4 1.7-0.8 0.2-1.3 0.6-1.9 1.4-1 0.7-2.2 1.2-3.5 1.1-6.7-3.3-5.5-7-17-7.8 1.6 9.2 6.4 15.3 12.6 19.5-1.9 28.9-18.9 13.8-35.8 21.7-4.9 2.3-21.8 20.2-27 25.7l-0.8 0.2c-14.3-3.4-21-17.1-33.2-21.6-8.4-3-16 0.9-22.8 0-0.1-0.1-0.3-0.3-0.5-0.3-1.2-5.7-3.1-9.9 0.1-14.9 11.6-21.1 45.4 8.5 50.5 17.4 10.1-1.8 14.4-8.1 16.8-17.4 2.2-3.3 2.2-8.9 2.1-15.2-16-0.1-26.4-13.5-29.5-26-1.8-0.6-3.7-1.3-5.5-1.9-1.4-1.3-3.2 0.6-2.9 1.9 1.8 4.5 3.1 5.8 6.1 8.5 0.1 0.4 0.1 1 0.1 1.5-0.4 4.1-0.8 5.9-1.7 8.5-0.4 0.5-0.8 0.9-1.2 1.3-2.4 0.9-1.5 0.3-3.2 1.7-0.3 0-0.7 0.1-1 0.1-8.3 0.1-14.2-0.4-19.3-2.1-0.1 0-0.2-0.1-0.3-0.1-0.3-0.1-0.6-0.2-0.9-0.4-1.7-0.7-3-1.8-3.5-4 0.5-3.1 1-6.2 1.5-9.2 0.3-0.6 0.7-1.2 1.1-1.7 3.2-0.7 6.4-1.3 9.7-2-2-30.6 22-26.8 29.5-8.7 8.7-2.3 8.1-6.7 10.2-14.2 0.3-0.3 0.6-0.6 0.9-1 14-0.2 16.2 3.3 18.3 15.2 10.2-1.6 9.7-5.5 17.7-8.3l2.1 0.3c7.3 6.6 15.9 8.4 20.2 18.8 1.7-1.1 10.5-31.5 14.1-39.8 0.7-0.5 1.5-0.9 2.4-1.1 8.8 1.3 9 4.2 15 8.4 1.8 10.5-1.7 18.9 2.1 32.6 3.7 12.8 9.4 24.7 10.4 42.3z m-92.3-40c-3.6-1.4-2.1-0.4-4.2-2.2-2.5 2.5-4.5 5.5-6.3 8.7h8.5c0.1 0 0.1-0.1 0.1-0.1 0.7-0.4 1.2-1.2 1.6-1.9 0.1 0 0.1-0.1 0.2-0.2h0.1v-4.3z m21 6.5c-0.1 0-0.2-0.1-0.2-0.1-0.1-0.2-0.1-0.2-0.3-0.3-0.4-0.5-1-1.4-1.5-1.7h-2.2c0.8 4.5 0.5 4.2 2.1 6.5 0.8 8.1 1.6 8.1 4.2 13h4.2c-1.3-7.8-3.7-11-6.3-17.4zM355.8 366.5c-0.2 0.4-0.4 0.9-0.6 1.4-1.3 1-2.7 1.7-4.2 2.4-4.9-0.6-9.9-1.5-13.9-3.2-1-0.6-1.9-1.3-2.9-1.9-0.5-0.3-0.9-0.5-1.4-0.6-0.1 0-0.1-0.1-0.2-0.1h-0.6c-4.9-1.6-12 0-13.4 4.7-1.4 1.4-2.7 3.1-4.3 5.2-0.6 0.2-1.1 0.4-1.7 0.6-8.5-1.8-9.8-5.5-11.4-14 0.1-0.5 0-1-0.5-1.3-1.1-0.7-2.5-0.9-3.9-1-1.8-0.6-4.1-0.6-6.4-0.8-3.6-0.3-8.5-1.2-12 0.2-2.2 0.9-3.2 2.5-4.3 4.4-0.1 0.1-0.1 0.2-0.2 0.3l-0.6 0.9c-0.2 0.3-0.2 0.6-0.2 0.9-0.6 2-1 4.6-1.4 7.8-0.4 0.3-0.7 0.7-1.1 1-0.2 0.1-0.4 0.2-0.6 0.4-1.4 0.5-1.1 0.3-2.1 1.2-0.3 0.1-0.6 0.3-0.9 0.4-6.3-0.1-10.5-0.8-14.4-2.2 0.6-6.9 1.2-8.9 3.7-10.5 0.9-1.5 2.3-2.5 2.9-4.3 0.5-1.4 0.8-3.1 0.7-4.7-0.2-0.5-0.4-1-0.7-1.4-0.3-0.4-0.6-0.6-1-0.9-20.7-0.7-41.5-1.3-62.2-2-1.3-0.7-1.9-2.1-2.2-3.7v-7.5c0.1-0.8 0.4-1.6 0.8-2.3 0.8-1.1 2.2-1.8 3.7-2.3 14.7-2 31.2-2.5 47.9-1.6 0.4 0 1.5 0.2 2.4 0.2h0.2c0.2 0 0.4 0 0.6 0.1 0.1 0 0.2-0.1 0.2-0.2 0.3-0.1 0.4-0.2 0.4-0.4v-0.1c0-0.1-0.1-0.2-0.1-0.3-0.1-0.3-0.2-0.5-0.5-0.9-0.9-1.8-2.1-3.4-3.4-4.9-0.3-0.4-0.7-0.7-1-1.1-0.6-1.3-2.9-3.1-3.2-3.4-0.9-0.8-1.9-1.6-2.9-2.2-0.4-0.3-0.8-0.5-1.2-0.7-0.3-0.2-0.7-0.5-1-0.7-0.8-0.8-1.5-1.5-2.3-2.2-0.2-0.3-0.4-0.7-0.6-1v-4.8c0.4-1.2 1-2 2.4-2.6 0.8-0.3 1.7-0.5 2.6-0.6 18.5 1.7 28.6 15.6 32.9 30.2 9.3 1.4 18.6 2.7 28 4.1 0.3 0.2 0.6 0.2 0.9 0.1 0.2 0 0.4 0.1 0.6 0.1v-0.2c0.6 0 1.2-0.3 1.3-0.8 1.7-11 2.4-22.1 2.6-33.3 0.1-5.7-0.1-11.5-0.1-17.3 0.3-4.6 0.8-9.1 1.6-13.5 1.1-3.9 2.2-7.7 3.4-11.6 0.1-0.4 0.1-0.8 0.1-1.1 0.8-2 1.6-3.9 2.6-5.8 0.7 0 1.4 0.3 1.8 1.2 0.4 0.8 0.7 1.7 1 2.5 0.3 0.3 0.6 0.7 0.7 1.2 0.1 0.3 0.1 0.6 0.2 0.9 0.2 0.5 0.3 1.1 0.5 1.7 0.2 1.4 0.5 2.8 0.7 4.2 1.2 6.8 1.8 13.6 2.2 20.5 0.1 5-0.2 10.1-0.4 15.2-0.2 1.2-0.4 2.5-0.5 3.7-0.2 2.3-0.1 4.7 0.1 7.1-0.1 4.5-0.1 9.1 0.4 13.6v0.5c0.2 1.7 0.5 3.2 0.8 4.7v0.9 0.3c-0.2 2.2-0.2 4.4 0.4 6.3v0.2c0.1 1.3 0.4 2.2 1 2.8 0 0.1 0.1 0.1 0.1 0.2h0.1c0.2 0.2 0.4 0.3 0.7 0.4h1c0.3 0 0.7 0.1 1.1 0.1 0.1 0 0.1 0.1 0.2 0.1s0.1 0 0.2-0.1h1.1c11.2 0.2 22.8 2.1 25.8 4.3 4.5 2 3.1 1.9 6.3 4.3-0.4 5.5-0.4 9.6-2.4 12.6zM167.4 371.4c-19 3.7-35.6-1.6-53.8-2 0.1 6.3 0.3 12.8-2 16.2 1 7.9 1.9 6.5 4 12.1 25-3 37.2-11.7 57.8 0-0.7 7.6-1.5 7.5-4 12.1-17.1 0.5-30.2 0.2-47.8 0V418c4.1 0.8 3.8 0.5 6 2 12.1 1.3 16.1 7 23.9 12.1-2.6 22.7-23.1 3.8-37.9 2 1.8 9.2 5.7 9.9 9.8 16v0.1c0 0.2 0.1 0.4 0.1 0.7-0.1 0.6-0.1 1.2 0 1.7-2.5 6.1-7.4 8.2-13.8 9.9 0.8 3.9 22.8 28.3 27.4 32 0.2 0.4 0.3 0.7 0.5 1.1V507c-0.3 0.8-0.7 1.7-1.3 2.3-0.3 0.2-0.5 0.3-0.8 0.5-0.5 0.2-0.6 0.2-1.1 0.6h-0.1c-0.3 0.2-0.6 0.4-0.8 0.6-26.4-0.4-15.3-13.4-27.9-26.3-9.6-9.8-25.4-15-37.6-22.1l-0.3-0.6v-3.6c1.5-1.9 0.9-0.7 1.8-3.5 0.3-0.2 0.6-0.5 0.9-0.7 6.7-1.7 10.2-3.6 19.2-3.9v-6.1c-14.8-6.6-24.8-15.9-37.3-23.9l-0.3-0.9c2.9-8 15.8-16.9 25.7-9.6h2c-1.6-15.2-38.5-40-55.8-40.5 0.5 15.5 2.8 32.7-6.6 41.3-0.5 0.3-0.9 0.7-1.2 1-0.1 0-0.1 0.1-0.2 0.2v0.2c-0.1 0.2-0.1 0.4 0 0.7v11.4c0 0.1 0.1 0.2 0.2 0.3v0.2h0.1c3.8 6.5 17 9.8 21.6 15.7 5.4 6.9 8.7 16.1 15.3 21.7 0.2 0.4 0.4 0.7 0.6 1.2-0.6 11.2-10.7 23.8-21.9 15.6-1.9-0.6-3.8-1.3-5.7-1.9-0.1-0.2-0.2-0.4-0.2-0.5 0.6-7.8-0.4-7.2 5.9-9.7-0.8-17.7-20-33-31.5-40.4l-0.3-0.9v-19.3c0-0.2 0.1-0.4 0.1-0.5 0.9-2.4 5.2-9.1 5.9-11.9 5.3-21.8-8.4-60.2 4-74.9-0.2-14 1.4-18.8 6-26.3 7.2-1.3 8-0.9 15.9 0 1.6 9.9 8.9 40.8 14 48.6v8.1c-3.4 1.3-2 0.4-4 2-14-2.8-9.2-12.3-15.2-21.2 0-0.5-0.2-0.9-0.4-1.3 0-0.5 0-1-0.3-1.4v-0.4h-0.2c-0.4-0.5-1-0.8-1.8-0.8-2.2 0-2.8 2.3-2 3.8-0.1 0.5 0 1 0.2 1.4 0.2 2.5 0.5 3.6 1.5 5.3 0 0.4 0.1 0.9 0.2 1.3v19.4c1.2-3.8 16.5-1.7 19.9 0 14.8 7.1 36.9 18.8 45.8 32.4h4c-0.5-10.7-0.2-12.3 0-24.3-9-1.7-12.2-6.3-17.9 0-12.6-0.6-10.1-3.7-15.9-10.1-0.1-12.2 8.9-24.2 11.7-39.2 0.1-0.4 0.3-0.7 0.5-1.1 0.2-0.2 0.5-0.4 0.5-0.5 0.1-0.1 0.1-0.2 0.2-0.3 2.7-1.5 4.4-2.5 6.3-4.7 0.7-0.2 1.3-0.3 2.1-0.4 3.9 1.5 4.1 1.9 6.6 5.6l0.1 0.1c2.5 0.2 5.5-0.8 7.7-1.9 0.1 0 0.1-0.1 0.1-0.2v-0.1c-1.1-12.1-8.9-15.7-17.3-19.8-0.3-0.6-0.4-1.2-0.5-1.8 0.4-3.9 0.8-5.6 1.8-8.3 0.2-0.1 0.4-0.2 0.7-0.3 15.2-0.2 75.6-0.2 79.2 2 17.6 9.2 4.8 49.4 14 62.7 0.1 13.5-1.6 17.2-6.1 24.3z m-77.7 54.7h-4v4c3.3 0.7 6.6 1.3 10 2v-8.1c-4.1 0.9-3.9 0.6-6 2.1z m10-89.1c-5.8-0.1-10.9-0.1-14 2-1.4 2-1.3 1.9-1.8 5l-0.3 0.6c-0.2 0.1-0.1 0.3 0.1 0.4h0.1s0.1 0.1 0.1 0h0.8c6.7 0 12.8-0.5 17-2-0.7-1.9-1.4-3.9-2-6z m51.6 14.5c-1.3-11.8-2-26.6-1.8-40.8-5.3-0.6-9.3-1.6-12.6-3.6-0.8-0.8-1.6-1.6-2.6-2.2-0.8-0.6-1.8-0.4-2.8-0.3h-1.9c-1.4-0.1-0.8-0.2-2-0.1-0.2 0-0.4 0.3-0.2 0.4 0.2 0.1 0.3 0.2 0.5 0.4 0.2 0.1 0.3 0.3 0.5 0.4 3.9 5.3 8.7 7.8 11.1 15.1l0.2 0.2c0 1 0 2.3-0.3 3.1-0.1 0.2-0.2 0.4-0.2 0.7-5.7 4.5-13.6 8.8-17.6 14.3-0.9 1.5-0.5 3-0.2 6.3-0.1 1.3-0.1 2.7 0.1 3.6 0 0.1 0 0.2 0.2 0.2h0.5c8.9 1.2 17.7 2.4 26.6 3.6 0.9 0.3 1.7 0.5 2.5 0.4 0.1 0 0.1-0.1 0.1-0.1h0.1v-0.1c0.2-0.4 0-1-0.2-1.5zM654.1 380.8l-22.6-2.3-37.2 46.4c-8.1-12.3-16-22.4-23.6-30.3-7.7-7.9-17.5-15.6-29.4-23.1l-1.3 2c16.6 11.6 29.8 24.4 39.5 38.3 9.7 14 14.2 23.7 13.6 29.4l1.9 0.9 6.2-7.8c0.3-0.3 0.4-0.6 0.4-0.9 0-0.3-0.2-0.6-0.6-0.9-1.7-1.2-3.3-2.9-4.8-5l22.2-24.6c6.5-7.2 12-12.1 16.6-14.7 4.6-2.6 11-4.2 19.2-5v-2.4zM591 407.5l8.7-6.3c0.3-0.3 0.4-0.5 0.4-0.8 0-0.2-0.1-0.5-0.4-0.9-0.8-1.1-1.4-2.6-1.8-4.5-0.3-1.9-0.5-5.4-0.5-10.6v-32.2c0-13.6-0.3-21.7-0.8-24.3-0.5-2.6-1.1-3.9-1.7-3.9-0.3 0-0.5 0.3-0.8 0.9l-4.8 10.6c1.1 1.6 1.8 3.3 2.2 5.2 0.4 1.8 0.6 6 0.6 12.6v33c0 6.6-0.1 10.9-0.4 13.2-0.3 2.2-0.9 4.5-2 6.7l1.3 1.3zM779.1 336.7l-22.2-1.1-38.1 63.5c-4.1-14.7-10-27.4-17.6-38.1-7.6-10.7-17.8-20.7-30.4-30.1l-1.1 1.8c11.3 9.5 20.7 19.7 27.9 30.6 7.3 10.9 12.6 22.7 15.9 35.2 3.3 12.5 5 22.9 5 31.3 0 4.5-0.5 8.1-1.5 10.6l1.6 1 8.7-8.9c0.5-0.5 0.8-0.9 0.8-1.1 0-0.2-0.3-0.7-1-1.4s-1.3-1.8-1.8-3.3c-0.5-1.5-1.3-4.8-2.3-9.9-1-5.1-2-9.4-2.9-12.7l17-27.4c9.7-15.7 17-25.6 21.9-29.8 4.8-4.2 11.5-6.8 20.1-7.9v-2.3zM884.2 438.3l5.3-4.7c0.5-0.4 0.8-0.8 0.8-1.1 0-0.3-0.3-0.7-0.9-1.4-0.6-0.6-1.2-1.8-1.6-3.4-0.5-1.6-0.7-3.4-0.7-5.2v-71.6c0-9.2-0.4-15.4-1.2-18.7-0.8-3.3-1.5-4.9-2.1-4.9-0.3 0-0.6 0.3-1.1 0.9-6 6.6-12.2 12.9-18.8 18.8l1.3 1.6 15.5-11c1.1 1.8 1.6 7 1.6 15.4v75.4l-67.6-5.8v-70.5c0-9.7-0.1-15.4-0.2-17.1-0.1-1.8-0.3-2.6-0.6-2.6-0.2 0-0.5 0.3-0.9 0.9l-5.9 10.1c1.3 2.1 2.1 4.3 2.4 6.7 0.3 2.3 0.5 5.8 0.5 10.5v54.8c0 6.9-0.8 13.6-2.5 20l2 0.6 4.7-9.3 65.7 6.2 4.3 5.4z m-37.3-57.4c-0.2-3.7-0.5-6.2-1-7.5-0.5-1.3-0.9-1.9-1.1-1.9-0.3 0-0.5 0.2-0.8 0.8-1.9 3.9-4.7 8.4-8.2 13.7-6-14.5-11.6-24.7-16.8-30.5l-1.3 0.9c6.2 11.2 11.3 22.4 15.3 33.8-3.4 4.9-7.2 10.1-11.5 15.6l1.3 1.1 11.6-12.6c2.4 8 3.5 14.2 3.5 18.8 0 0.9 0 1.7-0.1 2.4l1.6 0.3 5-7.3c0.4-0.5 0.6-0.9 0.6-1.2 0-0.3-0.2-0.6-0.6-0.8-0.9-0.8-1.8-2.3-2.6-4.5l-4-11.1 9.1-10z m28.4-7.4c-0.4-3.2-0.9-5.6-1.5-7.3s-1-2.5-1.4-2.5-0.7 0.4-1 1.3c-2.3 5.9-5.5 12.7-9.7 20.4-7.4-14-14.7-24.2-22.1-30.8l-1.3 0.9c7.7 9.3 14.6 20.8 20.7 34.4-2.8 4.8-5.8 9.6-9.2 14.4l1.5 1.3 9.1-12.2c4.9 12.2 7 20.8 6.4 25.8l1.3 0.3 5.3-7.2c0.4-0.6 0.6-1 0.6-1.3 0-0.3-0.3-0.7-0.9-1.2-1.3-1.3-2.8-3.9-4.2-7.9-1.5-4-3.3-8.2-5.4-12.6l11.8-15.8zM971.9 404c0.3-0.2 0.4-0.5 0.4-0.8 0-0.2-0.2-0.4-0.7-0.5l-12-1.6 5.4-5.9c0.3-0.3 0.5-0.7 0.5-0.9 0-0.3-0.3-0.7-0.8-1.1-0.9-0.8-1.9-4.3-3.1-10.3-1.1-6-2.5-14.5-4-25.4l13.5 4.7 0.5-1.8c-26.4-11.4-40.2-17.9-41.4-19.3l-7.7 4.4 31.4 10.7c2.3 18 3.4 30.8 3.4 38.3 0 2.6-0.1 4.7-0.4 6.2-15.5-2.3-24.7-4.1-27.6-5.4l-5.7 4.3c14.2 2.1 24.6 3.8 31.2 5 6.6 1.2 10.7 2.4 12.3 3.5l4.8-4.1z m-24.3-33.5c-0.8-3.1-1.5-5.4-2.1-6.8-0.7-1.4-1.2-2.1-1.6-2.1-0.4 0-0.6 0.3-0.8 1l-6.9 26.2 1.8 0.6 9.6-18.9z m8 48.7c-0.2-2-0.5-3.8-1-5.4-0.5-1.6-0.9-2.7-1.3-3.4-0.3-0.7-0.6-1-0.8-1s-0.4 0.3-0.8 0.9l-10.5 19.2 1.3 1.1 13.1-11.4z m67.7-16c0.5-0.3 0.7-0.6 0.7-0.9 0-0.2-0.3-0.4-0.9-0.5l-29.1-3.9v-24.7l13.4 1.9 3.5 4.9 5.2-4.8c0.3-0.3 0.5-0.7 0.5-1 0-0.3-0.2-0.6-0.5-0.9-1.6-1.6-2.6-4.7-3.1-9.2l-2.3-19.2 4-4.7c0.4-0.4 0.6-0.8 0.6-1 0-0.2-0.3-0.4-0.9-0.5l-34.2-3c0.2-4.2 0-6.9-0.4-8.1-0.5-1.2-0.9-1.8-1.2-1.8-0.3 0-0.6 0.2-0.9 0.6l-4.4 8.5c1.8 2.5 2.4 6.3 2 11.5l-1.6 20.4c-0.5 5.4-1 9.4-1.5 12.2l1.6 0.5 3.9-8.6 11.6 1.6V419c0 9.7-1 16.6-2.9 20.5l1.6 1 8.3-7.4c0.3-0.2 0.5-0.6 0.5-0.9s-0.1-0.7-0.2-1.1c-0.8-1.4-1.4-3.8-1.9-7.1s-0.8-6.5-0.8-9.6v-12.5c13 1.7 20.9 3.5 23.6 5.4l5.8-4.1z m-14.8-32.7l-30-3.8 1.5-26.6 26.1 2.8 2.4 27.6zM443 498.5V317h-10.1c-2.7 0-5-1-6.8-3-1.8-2-2.7-4.5-2.7-7.5V278c0-2.9 0.8-5.3 2.4-7.2 1.6-1.9 3.7-2.9 6.3-2.9 0.7 0 4.4 0.5 10.9 1.7v-1.4h6.1V498.6c-2-0.1-4-0.2-6.1-0.1z m0-224.3c-4.9-0.3-7.7-0.5-8.5-0.5-3.4 0-5.1 1.9-5.1 5.6v26.1c0 3.8 1.7 5.7 5.1 5.7h8.5v-36.9zM495.7 294.4c0-3.5-1.7-5.2-5.2-5.2h-14.8c-3.4 0-5.2 1.7-5.2 5.2v34.5c0 3.5 1.7 5.2 5.2 5.2h14.8c3.4 0 5.2-1.7 5.2-5.2v-16.2l-2.1-2.2h-17.1v-16.3h13.2v8.2h6v-8z m-5.9 21V329h-13.2v-13.5h13.2z"  horiz-adv-x="1024" />

    
    <glyph glyph-name="money" unicode="&#58898;" d="M1014.35392 445.76256l3.7376 1.05472V695.5264H5.90848v-248.71424l3.7376-1.0496c33.11616-9.27744 55.36256-34.0992 55.36256-61.76256 0-27.62752-22.2464-52.4544-55.36256-61.76256l-3.7376-1.05472v-248.71424h1012.18304v248.71936l-3.7376 1.0496c-33.11616 9.27232-55.36256 34.09408-55.36256 61.76256 0 27.62752 22.2464 52.4544 55.36256 61.76256zM889.92256 384c0-37.92896 21.98528-74.06592 58.96192-97.1776v-157.16352H75.1104v157.0304c37.51424 23.53152 58.96704 58.8032 58.96704 97.17248s-21.4528 73.64096-58.96704 97.1776v157.0304h873.7792v-156.89728c-37.51424-23.53152-58.96704-58.80832-58.96704-97.17248zM482.83648 446.20288h30.54592v40.78592h-39.41376c-5.79072 16.54272-17.7152 31.47264-33.92 42.34752-15.62624 10.496-36.80768 16.04096-61.24032 16.04096H289.9456v-58.38848h-33.03936l0.2048-43.27936h35.5328v-20.30592h-33.03424v-40.78592h33.03424v-162.48832h45.7728V321.74080000000004h32.90624c13.74208 0 25.12896 2.84672 34.2784 5.14048 12.3136 3.07712 23.48032 9.52832 29.16864 13.20448 8.25856 4.27008 13.49632 9.984 18.56 15.5136 1.69984 1.84832 3.43552 3.75296 5.3504 5.66784l1.18272 1.59232c4.44416 6.66624 9.02656 13.53216 13.52192 22.25152h42.48064v40.78592h-33.03424V446.208z m-48.26624 0.2048v-20.3008h-96.3584V446.4128h96.3584zM416.36352 385.536a56.1152 56.1152 0 0 0-14.53568-10.68544c-8.1408-4.15744-18.41152-6.51264-30.57664-7.01952l-35.5328 0.1024v17.60256h80.64zM371.11808 507.4944c13.25056 0 22.89152-2.0736 33.20832-7.12704a56.21248 56.21248 0 0 0 14.53056-10.68032H335.7184V507.4944h35.39456zM763.904 535.1372799999999c0.59392 1.65376 1.3056 3.25632 1.96096 4.90496 0.6144 1.536 0.78336 2.95424 0.86016 4.48-0.1024 0.18944-0.10752 0.384-0.18432 0.57344-0.35328 0.0512-0.70656 0.1024-1.03936 0.17408l-7.936 0.10752h-41.9328l-74.98752-144.896-0.4096-1.03936a113.8688 113.8688 0 0 0-2.6112-8.6016c-1.49504 3.59936-2.6112 6.4256-2.688 7.29088v1.20832l-73.02144 146.03776H509.85472l104.86272-204.37504v-118.1696h48.26624v120.63232l100.7616 191.67232h0.15872z"  horiz-adv-x="1024" />

    
    <glyph glyph-name="address-card" unicode="&#61202;" d="M1056 832H96C43 832 0 789 0 736v-704c0-53 43-96 96-96h960c53 0 96 43 96 96V736c0 53-43 96-96 96z m-704-192c70.6 0 128-57.4 128-128s-57.4-128-128-128-128 57.4-128 128 57.4 128 128 128z m224-473.6c0-21.2-20-38.4-44.8-38.4H172.8C148 128 128 145.20000000000005 128 166.39999999999998v38.4c0 63.6 60.2 115.2 134.4 115.2h10c24.6-10.2 51.4-16 79.6-16s55.2 5.8 79.6 16h10c74.2 0 134.4-51.6 134.4-115.2v-38.4zM1024 272c0-8.8-7.2-16-16-16H720c-8.8 0-16 7.2-16 16v32c0 8.8 7.2 16 16 16h288c8.8 0 16-7.2 16-16v-32z m0 128c0-8.8-7.2-16-16-16H720c-8.8 0-16 7.2-16 16v32c0 8.8 7.2 16 16 16h288c8.8 0 16-7.2 16-16v-32z m0 128c0-8.8-7.2-16-16-16H720c-8.8 0-16 7.2-16 16v32c0 8.8 7.2 16 16 16h288c8.8 0 16-7.2 16-16v-32z"  horiz-adv-x="1152" />

    
    <glyph glyph-name="bars" unicode="&#61236;" d="M96 632h832c17.674 0 32 14.326 32 32V744c0 17.674-14.326 32-32 32H96C78.326 776 64 761.674 64 744v-80c0-17.674 14.326-32 32-32z m0-320h832c17.674 0 32 14.326 32 32v80c0 17.674-14.326 32-32 32H96c-17.674 0-32-14.326-32-32v-80c0-17.674 14.326-32 32-32z m0-320h832c17.674 0 32 14.326 32 32v80c0 17.674-14.326 32-32 32H96c-17.674 0-32-14.326-32-32v-80c0-17.674 14.326-32 32-32z"  horiz-adv-x="1024" />

    
    <glyph glyph-name="briefcase" unicode="&#61263;" d="M640 320h384v-288c0-53.02-42.98-96-96-96H96c-53.02 0-96 42.98-96 96V320h384v-40c0-13.254 10.746-24 24-24h208c13.254 0 24 10.746 24 24v40z m384 224v-160H0v160c0 53.02 42.98 96 96 96h160V736c0 53.02 42.98 96 96 96h320c53.02 0 96-42.98 96-96v-96h160c53.02 0 96-42.98 96-96zM640 704H384v-64h256V704z"  horiz-adv-x="1024" />

    
    <glyph glyph-name="caret-right" unicode="&#61278;" d="M320 126.676V641.324c0 35.636 43.086 53.482 68.284 28.284l257.324-257.324c15.62-15.62 15.62-40.948 0-56.568L388.284 98.392C363.086 73.192 320 91.04 320 126.676z"  horiz-adv-x="1024" />

    
    <glyph glyph-name="caret-left" unicode="&#61279;" d="M704 641.324v-514.648c0-35.636-43.086-53.482-68.284-28.284L378.392 355.716c-15.62 15.62-15.62 40.948 0 56.568l257.324 257.324c25.198 25.2 68.284 7.352 68.284-28.284z"  horiz-adv-x="1024" />

    
    <glyph glyph-name="chevron-circle-down" unicode="&#61291;" d="M1008 384c0-274-222-496-496-496S16 110 16 384 238 880 512 880s496-222 496-496zM546 156.2l271 271c18.8 18.8 18.8 49.2 0 67.8l-34 34c-18.8 18.8-49.2 18.8-67.8 0L512 325.8 308.8 529c-18.8 18.8-49.2 18.8-67.8 0l-34-34c-18.8-18.8-18.8-49.2 0-67.8L478 156.2c18.8-18.8 49.2-18.8 68 0z"  horiz-adv-x="1024" />

    
    <glyph glyph-name="chevron-down" unicode="&#61293;" d="M478.058 133.048L89.372 521.736c-18.746 18.746-18.746 49.138 0 67.882l45.334 45.334c18.714 18.714 49.044 18.75 67.802 0.08L512 326.99l309.49 308.042c18.758 18.67 49.088 18.634 67.802-0.08l45.334-45.334c18.746-18.746 18.746-49.138 0-67.882L545.942 133.048c-18.746-18.744-49.138-18.744-67.884 0z"  horiz-adv-x="1024" />

    
    <glyph glyph-name="chevron-up" unicode="&#61295;" d="M545.942 634.952l388.686-388.686c18.746-18.746 18.746-49.138 0-67.882l-45.334-45.334c-18.714-18.714-49.044-18.75-67.802-0.08L512 441.01 202.51 132.968c-18.758-18.67-49.088-18.634-67.802 0.08l-45.334 45.334c-18.746 18.746-18.746 49.138 0 67.882L478.06 634.95c18.744 18.746 49.136 18.746 67.882 0.002z"  horiz-adv-x="1024" />

    
    <glyph glyph-name="cloud-download" unicode="&#61303;" d="M1075.2 442.8c8.2 21.4 12.8 44.8 12.8 69.2 0 106-86 192-192 192-39.4 0-76.2-12-106.6-32.4C734 767.6 630.6 832 512 832c-176.8 0-320-143.2-320-320 0-5.4 0.2-10.8 0.4-16.2C80.4 456.4 0 349.6 0 224c0-159 129-288 288-288h736c141.4 0 256 114.6 256 256 0 123.8-88 227.2-204.8 250.8z m-265.8-177.4L598.6 54.60000000000002c-12.4-12.4-32.8-12.4-45.2 0L342.6 265.4c-20.2 20.2-5.8 54.6 22.6 54.6H496V544c0 17.6 14.4 32 32 32h96c17.6 0 32-14.4 32-32v-224h130.8c28.4 0 42.8-34.4 22.6-54.6z"  horiz-adv-x="1280" />

    
    <glyph glyph-name="download" unicode="&#61349;" d="M432 896h160c26.6 0 48-21.4 48-48v-336h175.4c35.6 0 53.4-43 28.2-68.2L539.4 139.39999999999998c-15-15-39.6-15-54.6 0L180.2 443.8c-25.2 25.2-7.4 68.2 28.2 68.2H384V848c0 26.6 21.4 48 48 48z m592-752v-224c0-26.6-21.4-48-48-48H48c-26.6 0-48 21.4-48 48V144c0 26.6 21.4 48 48 48h293.4l98-98c40.2-40.2 105-40.2 145.2 0l98 98H976c26.6 0 48-21.4 48-48z m-248-176c0 22-18 40-40 40s-40-18-40-40 18-40 40-40 40 18 40 40z m128 0c0 22-18 40-40 40s-40-18-40-40 18-40 40-40 40 18 40 40z"  horiz-adv-x="1024" />

    
    <glyph glyph-name="exclamation-triangle" unicode="&#61364;" d="M1139.035378 15.973997C1175.951377-48.014002 1129.613378-128 1055.881379-128H96.109398c-73.873999 0-119.997998 80.109998-83.153998 143.973997L492.84739 848.029981c36.933999 64.017999 129.439997 63.901999 166.307997 0l479.879991-832.055984zM576.001389 187.999994c-50.809999 0-91.999998-41.189999-91.999998-91.999998s41.189999-91.999998 91.999998-91.999999 91.999998 41.189999 91.999998 91.999999-41.189999 91.999998-91.999998 91.999998z m-87.345999 330.691993l14.836-271.999994c0.694-12.728 11.218-22.692 23.964-22.692h97.091998c12.746 0 23.27 9.964 23.963999 22.692l14.836 271.999994c0.75 13.748-10.196 25.308-23.963999 25.308h-126.765998c-13.768 0-24.712-11.56-23.962-25.308z"  horiz-adv-x="1152" />

    
    <glyph glyph-name="exclamation-circle" unicode="&#61365;" d="M1008 384c0-273.994-222.086-496-496-496S16 110.006 16 384C16 657.834 238.086 880 512 880s496-222.166 496-496z m-496-100c-50.81 0-92-41.19-92-92s41.19-92 92-92 92 41.19 92 92-41.19 92-92 92z m-87.346 330.692l14.836-272c0.694-12.728 11.218-22.692 23.964-22.692h97.092c12.746 0 23.27 9.964 23.964 22.692l14.836 272c0.75 13.748-10.196 25.308-23.964 25.308h-126.766c-13.768 0-24.712-11.56-23.962-25.308z"  horiz-adv-x="1024" />

    
    <glyph glyph-name="file-text" unicode="&#61377;" d="M576 624V896H176C149.4 896 128 874.6 128 848v-928c0-26.6 21.4-48 48-48h672c26.6 0 48 21.4 48 48V576H624c-26.4 0-48 21.6-48 48z m128-472c0-13.2-10.8-24-24-24H344c-13.2 0-24 10.8-24 24v16c0 13.2 10.8 24 24 24h336c13.2 0 24-10.8 24-24v-16z m0 128c0-13.2-10.8-24-24-24H344c-13.2 0-24 10.8-24 24v16c0 13.2 10.8 24 24 24h336c13.2 0 24-10.8 24-24v-16z m0 144v-16c0-13.2-10.8-24-24-24H344c-13.2 0-24 10.8-24 24v16c0 13.2 10.8 24 24 24h336c13.2 0 24-10.8 24-24z m192 228.2v-12.2H640V896h12.2c12.8 0 25-5 34-14l195.8-196c9-9 14-21.2 14-33.8z"  horiz-adv-x="1024" />

    
    <glyph glyph-name="film" unicode="&#61395;" d="M976 768h-16v-40c0-13.2-10.8-24-24-24h-80c-13.2 0-24 10.8-24 24V768H192v-40c0-13.2-10.8-24-24-24H88c-13.2 0-24 10.8-24 24V768h-16C21.4 768 0 746.6 0 720v-672c0-26.6 21.4-48 48-48h16v40c0 13.2 10.8 24 24 24h80c13.2 0 24-10.8 24-24v-40h640v40c0 13.2 10.8 24 24 24h80c13.2 0 24-10.8 24-24v-40h16c26.6 0 48 21.4 48 48V720c0 26.6-21.4 48-48 48zM192 152c0-13.2-10.8-24-24-24H88c-13.2 0-24 10.8-24 24v80c0 13.2 10.8 24 24 24h80c13.2 0 24-10.8 24-24v-80z m0 192c0-13.2-10.8-24-24-24H88c-13.2 0-24 10.8-24 24v80c0 13.2 10.8 24 24 24h80c13.2 0 24-10.8 24-24v-80z m0 192c0-13.2-10.8-24-24-24H88c-13.2 0-24 10.8-24 24v80c0 13.2 10.8 24 24 24h80c13.2 0 24-10.8 24-24v-80z m544-416c0-13.2-10.8-24-24-24H312c-13.2 0-24 10.8-24 24v192c0 13.2 10.8 24 24 24h400c13.2 0 24-10.8 24-24v-192z m0 336c0-13.2-10.8-24-24-24H312c-13.2 0-24 10.8-24 24v192c0 13.2 10.8 24 24 24h400c13.2 0 24-10.8 24-24v-192z m224-304c0-13.2-10.8-24-24-24h-80c-13.2 0-24 10.8-24 24v80c0 13.2 10.8 24 24 24h80c13.2 0 24-10.8 24-24v-80z m0 192c0-13.2-10.8-24-24-24h-80c-13.2 0-24 10.8-24 24v80c0 13.2 10.8 24 24 24h80c13.2 0 24-10.8 24-24v-80z m0 192c0-13.2-10.8-24-24-24h-80c-13.2 0-24 10.8-24 24v80c0 13.2 10.8 24 24 24h80c13.2 0 24-10.8 24-24v-80z"  horiz-adv-x="1024" />

    
    <glyph glyph-name="gift" unicode="&#61416;" d="M64 0c0-35.4 28.6-64 64-64h320V256H64v-256z m896 576h-84.2c12.4 24.2 20.2 51 20.2 80 0 97-79 176-176 176-83.2 0-137-42.6-206-136.6-69 94-122.8 136.6-206 136.6-97 0-176-79-176-176 0-29 7.6-55.8 20.2-80H64c-35.4 0-64-28.6-64-64v-160c0-17.6 14.4-32 32-32h960c17.6 0 32 14.4 32 32v160c0 35.4-28.6 64-64 64z m-652.2 0c-44.2 0-80 35.8-80 80s35.8 80 80 80c39.8 0 69.2-6.6 172.2-160h-172.2z m412.2 0h-172.2c102.8 153 131.4 160 172.2 160 44.2 0 80-35.8 80-80s-35.8-80-80-80z m-144-640h320c35.4 0 64 28.6 64 64V256H576v-320z"  horiz-adv-x="1024" />

    
    <glyph glyph-name="graduation-cap" unicode="&#61425;" d="M1244.68 589.6L686.8 761c-30.4 9.34-63.2 9.34-93.58 0L35.32 589.6c-47.08-14.46-47.08-76.72 0-91.18l97.26-29.88c-21.34-26.38-34.46-58.56-35.76-93.8C77.56 363.7 64 343.78 64 320c0-21.56 11.36-39.7 27.72-51.3L40.66 38.94C36.22 18.96 51.42 0 71.88 0h112.22c20.48 0 35.68 18.96 31.24 38.94L164.28 268.7C180.64 280.3 192 298.44 192 320c0 23.14-12.94 42.5-31.32 53.74 1.52 30.04 16.88 56.6 41.38 73.44L593.2 327c18.12-5.56 52.88-12.5 93.58 0l557.9 171.4c47.1 14.48 47.1 76.72 0 91.2zM705.58 265.82c-57.06-17.52-105.68-7.84-131.18 0l-290.04 89.1L256 128c0-70.7 171.92-128 384-128s384 57.3 384 128l-28.36 226.94-290.06-89.12z"  horiz-adv-x="1280" />

    
    <glyph glyph-name="laptop" unicode="&#61489;" d="M1248 64H763.08c-1.48-39.62-29.42-64-65.48-64H576c-37.38 0-66.04 34.94-65.54 64H32c-17.6 0-32-14.4-32-32v-32c0-70.4 57.6-128 128-128h1024c70.4 0 128 57.6 128 128v32c0 17.6-14.4 32-32 32zM1152 800c0 52.8-43.2 96-96 96H224C171.2 896 128 852.8 128 800v-672h1024V800z m-128-544H256V768h768v-512z"  horiz-adv-x="1280" />

    
    <glyph glyph-name="link" unicode="&#61495;" d="M653.224 525.218c119.494-119.618 117.854-311.396 0.72-429.18-0.22-0.24-0.48-0.5-0.72-0.74l-134.4-134.4c-118.54-118.54-311.398-118.524-429.92 0-118.54 118.52-118.54 311.4 0 429.92l74.212 74.212c19.68 19.68 53.572 6.6 54.588-21.212 1.296-35.444 7.652-71.054 19.38-105.442 3.972-11.644 1.134-24.524-7.566-33.224l-26.174-26.174c-56.052-56.052-57.81-147.32-2.31-203.92 56.048-57.158 148.172-57.498 204.65-1.02l134.4 134.38c56.382 56.382 56.146 147.514 0 203.66-7.402 7.388-14.858 13.128-20.682 17.138a32.074 32.074 0 0 0-13.894 25.212c-0.792 21.134 6.696 42.912 23.396 59.612l42.108 42.11c11.042 11.042 28.364 12.398 41.168 3.462a304.964 304.964 0 0 0 41.044-34.394zM935.094 807.102c-118.522 118.524-311.38 118.54-429.92 0l-134.4-134.4c-0.24-0.24-0.5-0.5-0.72-0.74-117.132-117.784-118.774-309.562 0.72-429.18a304.908 304.908 0 0 1 41.042-34.392c12.804-8.936 30.128-7.578 41.168 3.462l42.108 42.11c16.7 16.7 24.188 38.478 23.396 59.612a32.074 32.074 0 0 1-13.894 25.212c-5.824 4.01-13.28 9.75-20.682 17.138-56.146 56.146-56.382 147.278 0 203.66l134.4 134.38c56.478 56.478 148.6 56.138 204.65-1.02 55.5-56.6 53.744-147.868-2.31-203.92l-26.174-26.174c-8.7-8.7-11.538-21.58-7.566-33.224 11.728-34.388 18.084-69.998 19.38-105.442 1.018-27.812 34.908-40.892 54.588-21.212l74.212 74.212c118.542 118.518 118.542 311.398 0.002 429.918z"  horiz-adv-x="1024" />

    
    <glyph glyph-name="minus-square" unicode="&#61520;" d="M864 832H160C107 832 64 789 64 736v-704c0-53 43-96 96-96h704c53 0 96 43 96 96V736c0 53-43 96-96 96zM248 304c-13.2 0-24 10.8-24 24v112c0 13.2 10.8 24 24 24h528c13.2 0 24-10.8 24-24v-112c0-13.2-10.8-24-24-24H248z"  horiz-adv-x="1024" />

    
    <glyph glyph-name="outdent" unicode="&#61534;" d="M64.0005 728V808c0 17.674 14.326 32 32 32h832c17.674 0 32-14.326 32-32v-80c0-17.674-14.326-32-32-32H96.0005c-17.674 0-32 14.326-32 32z m416-288h448c17.674 0 32 14.326 32 32v80c0 17.674-14.326 32-32 32H480.0005c-17.674 0-32-14.326-32-32v-80c0-17.674 14.326-32 32-32zM96.0005-72h832c17.674 0 32 14.326 32 32v80c0 17.674-14.326 32-32 32H96.0005c-17.674 0-32-14.326-32-32v-80c0-17.674 14.326-32 32-32z m384 256h448c17.674 0 32 14.326 32 32v80c0 17.674-14.326 32-32 32H480.0005c-17.674 0-32-14.326-32-32v-80c0-17.674 14.326-32 32-32zM73.3745 361.374l192-191.968C285.4685 149.304 320.0005 163.552 320.0005 192.032V575.984c0 28.658-34.65 42.608-54.626 22.626l-192-191.984c-12.498-12.496-12.498-32.756 0-45.252z"  horiz-adv-x="1024" />

    
    <glyph glyph-name="paperclip" unicode="&#61537;" d="M150.492166-36.28409c-116.859886 120.577882-114.681888 315.021692 2.771997 435.161575L572.783753 827.999066c88.631913 90.663911 232.701773 90.671911 321.341686 0 87.779914-89.787912 87.885914-234.657771 0-324.551683L528.427796 129.743748c-59.709942-61.07394-157.265846-60.221941-215.963789 1.995998-56.549945 59.939941-54.735947 154.945849 2.903998 213.905791l287.485719 293.669714c12.363988 12.627988 32.623968 12.843987 45.251956 0.481999l45.721955-44.757956c12.629988-12.363988 12.843987-32.623968 0.481999-45.251956L406.853915 256.145625c-9.86399-10.08999-10.47199-26.855974-1.295999-36.583964 8.743991-9.267991 22.489978-9.421991 31.37597-0.33l365.697643 373.701635c39.225962 40.123961 39.225962 105.449897-0.022 145.595858-38.377963 39.253962-99.913902 39.273962-138.307865 0L244.780073 309.409573c-69.525932-71.119931-70.597931-186.239818-2.381997-256.62575 68.019934-70.185931 177.969826-70.273931 246.115759-0.571999l344.119664 351.997656c12.353988 12.637988 32.613968 12.865987 45.251956 0.512l45.753956-44.727957c12.637988-12.353988 12.867987-32.613968 0.511999-45.251955l-344.119664-351.995657c-119.151884-121.875881-311.885695-120.431882-429.53958 0.969999z"  horiz-adv-x="1024" />

    
    <glyph glyph-name="phone" unicode="&#61558;" d="M986.800006 846.779419l-207.995609 47.998987c-22.599523 5.19989-45.799033-6.599861-54.998838-27.799413l-95.997974-223.995271c-8.399823-19.599586-2.799941-42.599101 13.799709-55.998818l121.197441-99.197905c-71.99848-153.396761-197.795824-280.994067-354.392517-354.392518l-99.197906 121.197441c-13.599713 16.59965-36.399231 22.199531-55.998818 13.799709l-223.99527-95.997973C7.820675 162.993856-3.979076 139.794346 1.220815 117.194823l47.998986-207.995608C54.219696-112.400329 73.41929-128 96.018813-128c512.189186 0 927.980407 414.991238 927.980407 927.980407 0 22.399527-15.399675 41.799117-37.199214 46.799012z"  horiz-adv-x="1024" />

    
    <glyph glyph-name="print" unicode="&#61579;" d="M928 512h-32V732.118a48 48 0 0 1-14.058 33.94L766.058 881.942A48 48 0 0 1 732.118 896H176C149.49 896 128 874.51 128 848v-336H96c-53.02 0-96-42.98-96-96v-264c0-13.254 10.746-24 24-24h104v-208c0-26.51 21.49-48 48-48h672c26.51 0 48 21.49 48 48V128h104c13.254 0 24 10.746 24 24V416c0 53.02-42.98 96-96 96z m-160-512H256v192h512v-192zM256 448V768h384v-80c0-26.4 21.6-48 48-48h80v-192H256z m608-144c-26.508 0-48 21.492-48 48s21.492 48 48 48 48-21.492 48-48-21.492-48-48-48z"  horiz-adv-x="1024" />

    
    <glyph glyph-name="qrcode" unicode="&#61581;" d="M64 448h384V832H64v-384zM192 704h128v-128H192V704z m384 128v-384h384V832H576z m256-256h-128V704h128v-128zM64-64h384V320H64v-384z m128 256h128v-128H192v128z m704 128h64v-256h-192v64h-64v-192h-128V320h192v-64h128v64z m0-320h64v-64h-64v64z m-128 0h64v-64h-64v64z"  horiz-adv-x="1024" />

    
    <glyph glyph-name="quote-left" unicode="&#61585;" d="M928 384h-160v128c0 70.6 57.4 128 128 128h16c26.6 0 48 21.4 48 48V784c0 26.6-21.4 48-48 48h-16c-176.8 0-320-143.2-320-320v-480c0-53 43-96 96-96h256c53 0 96 43 96 96V288c0 53-43 96-96 96z m-576 0H192v128c0 70.6 57.4 128 128 128h16c26.6 0 48 21.4 48 48V784c0 26.6-21.4 48-48 48h-16C143.2 832 0 688.8 0 512v-480c0-53 43-96 96-96h256c53 0 96 43 96 96V288c0 53-43 96-96 96z"  horiz-adv-x="1024" />

    
    <glyph glyph-name="quote-right" unicode="&#61587;" d="M928 832H672c-53 0-96-43-96-96v-256c0-53 43-96 96-96h160v-128c0-70.6-57.4-128-128-128h-16c-26.6 0-48-21.4-48-48v-96c0-26.6 21.4-48 48-48h16c176.8 0 320 143.2 320 320V736c0 53-43 96-96 96z m-576 0H96C43 832 0 789 0 736v-256c0-53 43-96 96-96h160v-128c0-70.6-57.4-128-128-128h-16c-26.6 0-48-21.4-48-48v-96c0-26.6 21.4-48 48-48h16c176.8 0 320 143.2 320 320V736c0 53-43 96-96 96z"  horiz-adv-x="1024" />

    
    <glyph glyph-name="random" unicode="&#61586;" d="M1009.942 177.942c18.746-18.746 18.746-49.138 0-67.882l-160-159.968c-30.02-30.02-81.942-8.98-81.942 33.942V64h-117.57a24.008 24.008 0 0 0-17.546 7.624l-141.112 151.192 106.666 114.286L704 224h64v79.962c0 42.876 51.886 63.996 81.942 33.942l160-159.962zM24 544h168l105.562-113.102 106.666 114.286-141.112 151.192A23.998 23.998 0 0 1 245.57 704H24c-13.254 0-24-10.746-24-24v-112c0-13.254 10.746-24 24-24z m744 0v-79.968c0-42.92 51.922-63.96 81.942-33.942l160 159.968c18.746 18.746 18.746 49.138 0 67.882l-160 159.962C819.886 847.958 768 826.836 768 783.962V704h-117.57a24.008 24.008 0 0 1-17.546-7.624L192 224H24c-13.254 0-24-10.746-24-24v-112c0-13.254 10.746-24 24-24h221.57c6.652 0 13.006 2.762 17.546 7.624L704 544h64z"  horiz-adv-x="1024" />

    
    <glyph glyph-name="rss" unicode="&#61596;" d="M320.16155 64.082c0-70.738-57.344-128.082-128.082-128.082S63.99955-6.656 63.99955 64.082s57.344 128.082 128.082 128.082 128.08-57.346 128.08-128.082z m351.32-94.5c-16.708 309.2-264.37 557.174-573.9 573.9C79.31155 544.47 63.99955 529.79 63.99955 511.494v-96.138c0-16.83 12.98-30.944 29.774-32.036 223.664-14.568 402.946-193.404 417.544-417.544 1.094-16.794 15.208-29.774 32.036-29.774h96.138c18.298-0.002 32.978 15.31 31.99 33.58z m288.498-0.576C943.19155 436.646 566.92955 815.11 97.00555 831.98 78.94555 832.628 63.99955 818.038 63.99955 799.968v-96.136c0-17.25 13.67-31.29 30.906-31.998 382.358-15.678 689.254-322.632 704.93-704.93 0.706-17.236 14.746-30.906 31.998-30.906h96.136c18.068 0.002 32.658 14.948 32.01 33.008z"  horiz-adv-x="1024" />

    
    <glyph glyph-name="search" unicode="&#61608;" d="M1009.938827 10.686456L810.558298 210.066986c-8.999121 8.999121-21.19793 13.998633-33.99668 13.998633H743.964801c55.19461 70.593106 87.991407 159.384435 87.991407 255.975002C831.956208 709.818182 645.77439 896 415.996829 896S0.03745 709.818182 0.03745 480.040621s186.181818-415.959379 415.959379-415.959379c96.590567 0 185.381896 32.796797 255.975002 87.991407v-32.596817c0-12.79875 4.999512-24.997559 13.998633-33.99668l199.38053-199.380529c18.798164-18.798164 49.195196-18.798164 67.793379 0l56.594473 56.594473c18.798164 18.798164 18.798164 49.195196 0.199981 67.99336zM415.996829 224.065619c-141.386193 0-255.975002 114.388829-255.975002 255.975002 0 141.386193 114.388829 255.975002 255.975002 255.975002 141.386193 0 255.975002-114.388829 255.975002-255.975002 0-141.386193-114.388829-255.975002-255.975002-255.975002z"  horiz-adv-x="1024" />

    
    <glyph glyph-name="share-alt" unicode="&#61615;" d="M768 256c-45.216 0-86.774-15.638-119.58-41.79l-204.972 128.108a193.102 193.102 0 0 1 0 83.366l204.972 128.108C681.226 527.638 722.784 512 768 512c106.038 0 192 85.962 192 192S874.038 896 768 896s-192-85.962-192-192c0-14.316 1.58-28.26 4.552-41.682L375.58 534.21C342.774 560.362 301.216 576 256 576c-106.038 0-192-85.962-192-192s85.962-192 192-192c45.216 0 86.774 15.638 119.58 41.79l204.972-128.108A192.602 192.602 0 0 1 576 64c0-106.038 85.962-192 192-192s192 85.962 192 192-85.962 192-192 192z"  horiz-adv-x="1024" />

    
    <glyph glyph-name="sign-in" unicode="&#61627;" d="M832 0h-168c-13.2 0-24 10.8-24 24v80c0 13.2 10.8 24 24 24h168c35.4 0 64 28.6 64 64V576c0 35.4-28.6 64-64 64h-168c-13.2 0-24 10.8-24 24V744c0 13.2 10.8 24 24 24h168c106 0 192-86 192-192v-384c0-106-86-192-192-192z m-94 402L402 738c-30 30-82 9-82-34v-192H48c-26.6 0-48-21.4-48-48v-192c0-26.6 21.4-48 48-48h272v-192c0-43 52-64 82-34l336 336c18.6 18.8 18.6 49.2 0 68z"  horiz-adv-x="1024" />

    
    <glyph glyph-name="spinner" unicode="&#61646;" d="M608 800c0-53.02-42.98-96-96-96s-96 42.98-96 96 42.98 96 96 96 96-42.98 96-96z m-96-736c-53.02 0-96-42.98-96-96s42.98-96 96-96 96 42.98 96 96-42.98 96-96 96z m416 416c-53.02 0-96-42.98-96-96s42.98-96 96-96 96 42.98 96 96-42.98 96-96 96zM192 384c0 53.02-42.98 96-96 96S0 437.02 0 384s42.98-96 96-96 96 42.98 96 96z m25.844-198.156c-53.02 0-96-42.98-96-96s42.98-96 96-96 96 42.98 96 96c0 53.018-42.982 96-96 96z m588.312 0c-53.02 0-96-42.98-96-96s42.98-96 96-96 96 42.98 96 96c0 53.018-42.98 96-96 96zM217.844 774.156c-53.02 0-96-42.98-96-96s42.98-96 96-96 96 42.98 96 96-42.982 96-96 96z"  horiz-adv-x="1024" />

    
    <glyph glyph-name="star-half" unicode="&#61652;" d="M576 896c-22.8 0-45.6-11.8-57.4-35.6L388 595.6 95.8 553.2c-52.4-7.6-73.4-72.2-35.4-109.2l211.4-206-50-291c-9-52.2 46-92 92.8-67.4L576 16.799999999999955V896z"  horiz-adv-x="1152" />

    
    <glyph glyph-name="star" unicode="&#61653;" d="M518.535872 860.379045L387.952021 595.6117899999999 95.788154 553.017057c-52.39352-7.59906-73.390924-72.191072-35.395623-109.186496l211.373859-205.974527-49.993817-290.964016c-8.998887-52.593496 46.394262-91.988624 92.788525-67.391666L575.928774 16.883362000000034l261.367676-137.38301c46.394262-24.396983 101.787412 14.79817 92.788525 67.391666l-49.993818 290.964016 211.373859 205.974527c37.995301 36.995425 16.997898 101.587436-35.395622 109.186496L763.905526 595.6117899999999 633.321676 860.379045c-23.397106 47.194163-91.188723 47.794089-114.785804 0z"  horiz-adv-x="1151" />

    
    <glyph glyph-name="star-half-o" unicode="&#61654;" d="M1017.1089 552.98L724.3689 595.6 593.5489 860.38C581.7889 884.04 558.8489 896 535.9089 896c-22.8 0-45.58-11.8-57.38-35.62l-130.86-264.76-292.76-42.58c-52.5-7.6-73.54-72.18-35.48-109.18l211.78-206-50.12-290.96C173.9689-94.65999999999997 207.1489-128 244.3089-128c9.86 0 20 2.34 29.74 7.5l261.9 137.36 261.88-137.4c9.72-5.1 19.84-7.42 29.66-7.42 37.2 0 70.44 33.22 63.32 74.8l-50.06 290.98 211.82 205.96c38.08 37 17.04 101.6-35.46 109.2z m-243.48-246.4l-36.24-35.24 8.56-49.76 39.04-226.9-204.26 107.18-44.76 23.48 0.06 634.38 102.06-206.58 22.36-45.26 50.02-7.28 228.46-33.26-165.3-160.76z"  horiz-adv-x="1072" />

    
    <glyph glyph-name="sticky-note" unicode="&#61658;" d="M688 256h272V784c0 26.6-21.4 48-48 48H112C85.4 832 64 810.6 64 784v-800c0-26.6 21.4-48 48-48h528V208c0 26.4 21.6 48 48 48z m258-110l-196-196c-9-9-21.2-14-34-14h-12V192h256v-12.2c0-12.6-5-24.8-14-33.8z"  horiz-adv-x="1024" />

    
    <glyph glyph-name="tags" unicode="&#61683;" d="M995.880775 444.118556L572.117296 867.882035A95.999882 95.999882 0 0 1 504.23538 896H95.999882C42.979947 896 0 853.020053 0 800.000118v-408.235498a95.999882 95.999882 0 0 1 28.117965-67.881916l423.763479-423.763479c37.487954-37.489954 98.271879-37.491954 135.763833 0l408.235498 408.235498c37.489954 37.489954 37.489954 98.273879 0 135.763833zM223.999724 576.000394c-53.019935 0-95.999882 42.979947-95.999881 95.999882s42.979947 95.999882 95.999881 95.999881 95.999882-42.979947 95.999882-95.999881-42.979947-95.999882-95.999882-95.999882z m1027.880736-267.645671L843.644962-99.880775c-37.489954-37.489954-98.273879-37.489954-135.763833 0l-0.719999 0.72L1055.278702 248.956796c33.997958 33.997958 52.719935 79.199903 52.719935 127.279844s-18.723977 93.281885-52.719935 127.279843L662.793184 896h97.441881a95.999882 95.999882 0 0 0 67.881916-28.117965l423.763479-423.763479c37.489954-37.489954 37.489954-98.273879 0-135.763833z"  horiz-adv-x="1279" />

    
    <glyph glyph-name="thumbs-up" unicode="&#61702;" d="M207.999974 448.000875H48.000286c-26.509948 0-47.999906-21.489958-47.999906-47.999906v-479.999063c0-26.509948 21.489958-47.999906 47.999906-47.999906h159.999688c26.509948 0 47.999906 21.489958 47.999906 47.999906V400.000969c0 26.509948-21.489958 47.999906-47.999906 47.999906zM128.00013-47.998156c-26.509948 0-47.999906 21.489958-47.999906 47.999906s21.489958 47.999906 47.999906 47.999906 47.999906-21.489958 47.999906-47.999906-21.489958-47.999906-47.999906-47.999906zM767.99888 733.096318c0-84.831834-51.939899-132.415741-66.55387-189.095631h203.445603c66.79387 0 118.793768-55.491892 119.105767-116.195773 0.168-35.87593-15.091971-74.497854-38.877924-98.393807l-0.22-0.22c19.671962-46.673909 16.473968-112.073781-18.615963-158.93769 17.361966-51.789899-0.138-115.407775-32.763936-149.513708 8.595983-35.195931 4.487991-65.149873-12.295976-89.263825C880.40266-127.172002 779.230858-127.998 693.677025-127.998l-5.689989 0.002c-96.573811 0.034-175.611657 35.195931-239.119533 63.449876-31.913938 14.197972-73.641856 31.773938-105.301794 32.355937-13.079974 0.24-23.565954 10.913979-23.565954 23.995953v427.539165c0 6.399988 2.563995 12.541976 7.115986 17.041967 79.227845 78.287847 113.295779 161.173685 178.233652 226.221558 29.607942 29.663942 40.375921 74.471855 50.785901 117.80377C565.029276 817.414153 583.63324 896 623.999161 896c47.999906 0 143.999719-15.999969 143.999719-162.903682z"  horiz-adv-x="1024" />

    
    <glyph glyph-name="times" unicode="&#61705;" d="M645.44 384l200.14 200.14c24.56 24.56 24.56 64.38 0 88.96l-44.48 44.48c-24.56 24.56-64.38 24.56-88.96 0L512 517.44 311.86 717.58c-24.56 24.56-64.38 24.56-88.96 0L178.42 673.1c-24.56-24.56-24.56-64.38 0-88.96L378.56 384 178.42 183.86c-24.56-24.56-24.56-64.38 0-88.96l44.48-44.48c24.56-24.56 64.4-24.56 88.96 0L512 250.56l200.14-200.14c24.56-24.56 64.4-24.56 88.96 0l44.48 44.48c24.56 24.56 24.56 64.38 0 88.96L645.44 384z"  horiz-adv-x="1024" />

    
    <glyph glyph-name="user" unicode="&#61739;" d="M512 384c132.5625 0 240 107.4375 240 240S644.5625 864 512 864 272 756.5625 272 624s107.4375-240 240-240z m168-60h-31.3125c-41.625-19.125-87.9375-30-136.6875-30s-94.875 10.875-136.6875 30h-31.3125C204.875 324 92 211.125 92 72V-6c0-49.6875 40.3125-90 90-90h660c49.6875 0 90 40.3125 90 90v78c0 139.125-112.875 252-252 252z"  horiz-adv-x="1024" />

    
    <glyph glyph-name="user-circle" unicode="&#61744;" d="M512 880C238 880 16 658 16 384s222-496 496-496 496 222 496 496S786 880 512 880z m0-192c97.2 0 176-78.8 176-176s-78.8-176-176-176-176 78.8-176 176 78.8 176 176 176z m0-688c-117.4 0-222.6 53.2-293 136.4 37.6 70.8 111.2 119.6 197 119.6 4.8 0 9.6-0.8 14.2-2.2 26-8.4 53.2-13.8 81.8-13.8 28.6 0 56 5.4 81.8 13.8 4.6 1.4 9.4 2.2 14.2 2.2 85.8 0 159.4-48.8 197-119.6C734.6 53.2 629.4 0 512 0z"  horiz-adv-x="1024" />

    
    <glyph glyph-name="codepen" unicode="&#61819;" d="M1004.57 576.592l-468 312c-15.974 9.83-33.022 9.92-49.142 0l-468-312C7.428 568.594 0 554.306 0 540.022v-311.998c0-14.286 7.428-28.572 19.43-36.572l468-312.044c15.974-9.83 33.022-9.92 49.142 0l468 312.044c12 7.998 19.43 22.286 19.43 36.572V540.022c-0.002 14.284-7.43 28.572-19.432 36.57zM556 769.738l344.572-229.716-153.714-102.858L556 564.594V769.738z m-88 0v-205.144l-190.858-127.43-153.714 102.858L468 769.738zM88 457.736l110.286-73.714L88 310.308v147.428z m380-459.43L123.428 228.022l153.714 102.858L468 203.45v-205.144z m44 281.716l-155.43 104 155.43 104 155.43-104-155.43-104z m44-281.716V203.45l190.858 127.43 153.714-102.858L556-1.694z m380 312.002l-110.286 73.714L936 457.736v-147.428z"  horiz-adv-x="1024" />

    
    <glyph glyph-name="facebook" unicode="&#61853;" d="M960 782.6v-797c0-27.4-22.2-49.4-49.4-49.4H682.2V283h116.4l17.4 135.2h-134v86.4c0 39.2 10.8 65.8 67 65.8h71.6v121c-12.4 1.6-54.8 5.4-104.4 5.4-103.2 0-174-63-174-178.8v-99.8h-116.8v-135.2h116.8V-64H113.4C86.2-64 64-41.799999999999955 64-14.600000000000023V782.6C64 809.8 86.2 832 113.4 832h797c27.4 0 49.6-22.2 49.6-49.4z"  horiz-adv-x="1024" />

    
    <glyph glyph-name="instagram" unicode="&#61907;" d="M512.1 614c-127.2 0-229.8-102.6-229.8-229.8s102.6-229.8 229.8-229.8S741.9 257 741.9 384.2 639.3 614 512.1 614z m0-379.2c-82.2 0-149.4 67-149.4 149.4s67 149.4 149.4 149.4 149.4-67 149.4-149.4-67.2-149.4-149.4-149.4z m292.8 388.6c0-29.8-24-53.6-53.6-53.6-29.8 0-53.6 24-53.6 53.6s24 53.6 53.6 53.6 53.6-24 53.6-53.6z m152.2-54.4c-3.4 71.8-19.8 135.4-72.4 187.8-52.4 52.4-116 68.8-187.8 72.4-74 4.2-295.8 4.2-369.8 0-71.6-3.4-135.2-19.8-187.8-72.2s-68.8-116-72.4-187.8c-4.2-74-4.2-295.8 0-369.8 3.4-71.8 19.8-135.4 72.4-187.8s116-68.8 187.8-72.4c74-4.2 295.8-4.2 369.8 0 71.8 3.4 135.4 19.8 187.8 72.4 52.4 52.4 68.8 116 72.4 187.8 4.2 74 4.2 295.6 0 369.6zM861.5 120c-15.6-39.2-45.8-69.4-85.2-85.2-59-23.4-199-18-264.2-18s-205.4-5.2-264.2 18c-39.2 15.6-69.4 45.8-85.2 85.2-23.4 59-18 199-18 264.2s-5.2 205.4 18 264.2c15.6 39.2 45.8 69.4 85.2 85.2 59 23.4 199 18 264.2 18s205.4 5.2 264.2-18c39.2-15.6 69.4-45.8 85.2-85.2 23.4-59 18-199 18-264.2s5.4-205.4-18-264.2z"  horiz-adv-x="1024" />

    
    <glyph glyph-name="pinterest-square" unicode="&#61971;" d="M960 736v-704c0-53-43-96-96-96H372.8c19.6 32.8 44.8 80 54.8 118.6 6 23 30.6 116.8 30.6 116.8 16-30.6 62.8-56.4 112.6-56.4 148.2 0 254.8 136.2 254.8 305.4 0 162.2-132.4 283.6-302.8 283.6-212 0-324.4-142.2-324.4-297.2 0-72 38.4-161.6 99.6-190.2 9.4-4.4 14.2-2.4 16.4 6.6 1.6 6.8 10 40.2 13.6 55.6 1.2 5 0.6 9.2-3.4 14-20.2 24.6-36.6 69.8-36.6 112 0 108.4 82 213.2 221.8 213.2 120.6 0 205.2-82.2 205.2-199.8 0-132.8-67-224.8-154.4-224.8-48.2 0-84.2 39.8-72.8 88.8 13.8 58.4 40.6 121.4 40.6 163.6 0 106-151 91.4-151-50 0-43.4 14.6-73 14.6-73-62.8-265.6-72.2-269-59.2-385.2l4.4-1.6H160c-53 0-96 43-96 96V736c0 53 43 96 96 96h704c53 0 96-43 96-96z"  horiz-adv-x="1024" />

    
    <glyph glyph-name="renren" unicode="&#61985;" d="M428 557.8c0-220.8-122-410.8-295.2-494.8C60 149.6 16 260.6 16 382.8 16 628.2 194.2 831.6 428 871v-313.2zM510-112c-85.8 0-166.6 22-237 60.8C387.4 21 479.8 130.2 510 258c31-127.8 123.4-237 237.6-309.4C677.4-90 596.6-112 510-112z m381.2 175C718 147 596 336.8 596 557.8V871c233.8-39.4 412-242.8 412-488.2 0-122.2-44-233.2-116.8-319.8z"  horiz-adv-x="1024" />

    
    <glyph glyph-name="tencent-weibo" unicode="&#62023;" d="M272.606789-95.57188c2.799921-39.798871-55.198435-44.398741-59.398315-5.799835C190.009131 158.420917 275.40671 377.614701 416.002722 525.010521c-31.199115 67.998072 18.399478 154.195627 101.197131 154.195627 60.598281 0 110.196875-49.198605 110.196874-110.196875 0-87.997504-98.997193-141.595984-173.795071-90.197442-131.396274-142.595956-202.794249-339.590369-180.994867-574.383711zM512 895.800006C260.207141 895.800006 103.411587 627.407617 215.408411 411.213748 232.807918 376.414735 286.006409 402.214003 268.006919 438.012988 175.409545 623.207736 310.005728 836.40169 512 836.40169c150.795724 0 273.792235-122.796518 273.792235-273.792235 0-181.59485-173.795071-307.791271-335.390488-266.192451-38.198917 8.199767-51.198548-48.798616-13.199626-58.19835 221.393721-46.398684 407.98843 119.996597 407.98843 324.590795C845.190551 746.604237 695.994782 895.800006 512 895.800006z"  horiz-adv-x="1024" />

    
    <glyph glyph-name="twitter" unicode="&#62029;" d="M918.74 592.568c0.65-9.096 0.65-18.194 0.65-27.29 0-277.44-211.166-597.116-597.116-597.116-118.904 0-229.36 34.438-322.274 94.212 16.894-1.948 33.136-2.598 50.68-2.598 98.11 0 188.426 33.136 260.548 89.664-92.264 1.95-169.584 62.376-196.224 145.544 12.996-1.948 25.99-3.248 39.636-3.248 18.842 0 37.686 2.6 55.228 7.146-96.162 19.494-168.286 103.96-168.286 205.97v2.598c27.938-15.594 60.428-25.34 94.862-26.638-56.528 37.686-93.562 102.01-93.562 174.782 0 38.984 10.394 74.72 28.588 105.908 103.31-127.35 258.6-210.516 432.73-219.614-3.248 15.594-5.198 31.836-5.198 48.08 0 115.656 93.564 209.868 209.868 209.868 60.426 0 115.004-25.34 153.34-66.274 47.43 9.096 92.912 26.64 133.198 50.68-15.596-48.732-48.732-89.666-92.264-115.654 42.234 4.546 83.168 16.244 120.852 32.486-28.584-41.582-64.322-78.616-105.256-108.506z"  horiz-adv-x="1024" />

    
    <glyph glyph-name="weibo" unicode="&#62049;" d="M814 540.8c15.2 48-26.8 93.6-74.8 83.4-44-9.6-57.6 56.2-14.2 65.6 100.2 21.8 184.6-74.2 153-169.6-13.6-42.4-77.6-21.6-64 20.6zM429.6 2.6C217 2.6 0 105.4 0 275.2c0 88.6 56 190.8 152.6 287.4C352 762 559 764.4 499.8 574c-8-26.2 24.6-11.4 24.6-12 159 67.2 281 33.6 228-102.8-7.4-18.8 2.2-21.8 16.6-26.2 271.4-84.6 69.6-430.4-339.4-430.4z m287.4 292.6c-10.8 111.4-157 188-326.8 171.4-169.6-17.2-297.6-120.6-286.8-232s157-188 326.8-171.4c169.6 17.2 297.6 120.6 286.8 232zM695.8 825.8c-51.8-11.2-33.6-87.4 16.6-76.6 144.6 30.4 269.6-105.6 223.4-248-14.8-48.4 58.2-74 74.8-24 63.8 199.6-110.2 391.8-314.8 348.6z m-157-622c-34.2-77.6-133.6-120-218.2-92.6-81.6 26.2-116 106.8-80.6 179.4 35.4 70.8 126.2 110.8 206.8 90.2 84-21.6 126.2-100.4 92-177z m-172.6 60c-25.8 10.8-60-0.6-76-25.8-16.6-25.8-8.6-56 17.2-68 26.2-12 61.6-0.6 78.2 25.8 16 26.2 7.4 56.6-19.4 68z m65.2 26.8c-10.2 3.4-22.8-1.2-28.6-10.8-5.8-10.2-2.8-21.2 7.4-25.8 10.2-4 23.4 0.6 29.2 10.8 5.6 10.4 2.2 21.8-8 25.8z"  horiz-adv-x="1024" />

    
    <glyph glyph-name="weixin" unicode="&#62050;" d="M770.4 560.8c12.8 0 25.2-0.6 37.6-2.2C774.8 715.4 606.6 832 415.4 832 201 832 26 686.4 26 501.2c0-106.8 58.6-195 155.8-263.2l-38.6-117.2 136 68.2c48.8-9.6 87.6-19.4 136.4-19.4 12.4 0 24.2 0.6 36.6 1.6-8 25.8-12.4 53.2-12.4 81.6-0.2 169.8 145.8 308 330.6 308z m-209 105.8c29 0 48.4-19.4 48.4-48.8 0-29-19.4-48.4-48.4-48.4-29.6 0-58.6 19.4-58.6 48.4 0.2 29.4 29.2 48.8 58.6 48.8z m-272.8-97.2c-29 0-58.6 19.4-58.6 48.4 0 29.6 29.6 48.8 58.6 48.8 29.6 0 48.8-19.4 48.8-48.8 0-29.2-19.2-48.4-48.8-48.4zM1126 257.20000000000005c0 155.8-155.8 282.6-330.8 282.6-185.4 0-330.8-126.8-330.8-282.6S610-25.399999999999977 795.2-25.399999999999977c38.6 0 77.8 10.2 117.2 19.8l106.8-58.6-29.6 97.2C1068 91.79999999999995 1126 169.60000000000002 1126 257.20000000000005z m-438.2 49c-19.4 0-38.6 19.4-38.6 39.2 0 19.4 19.4 38.6 38.6 38.6 29.6 0 48.8-19.4 48.8-38.6 0-20-19.4-39.2-48.8-39.2z m214.2 0c-19.4 0-38.6 19.4-38.6 39.2 0 19.4 19.4 38.6 38.6 38.6 29 0 48.8-19.4 48.8-38.6 0.2-20-19.8-39.2-48.8-39.2z"  horiz-adv-x="1152" />

    
    <glyph glyph-name="bookmark-o" unicode="&#62076;" d="M800 896H224C170.98 896 128 853.02 128 800v-928l384 224 384-224V800c0 53.02-42.98 96-96 96z m0-856.86l-288 168-288-168V788a12 12 0 0 0 12 12h552c6.628 0 12-5.366 12-11.992V39.139999999999986z"  horiz-adv-x="1024" />

    
    <glyph glyph-name="calendar-minus-o" unicode="&#62078;" d="M312 240c-13.2 0-24 10.8-24 24v48c0 13.2 10.8 24 24 24h400c13.2 0 24-10.8 24-24v-48c0-13.2-10.8-24-24-24H312z m648 432v-704c0-53-43-96-96-96H160c-53 0-96 43-96 96V672c0 53 43 96 96 96h96V872c0 13.2 10.8 24 24 24h80c13.2 0 24-10.8 24-24v-104h256V872c0 13.2 10.8 24 24 24h80c13.2 0 24-10.8 24-24v-104h96c53 0 96-43 96-96z m-96-692V576H160v-596c0-6.6 5.4-12 12-12h680c6.6 0 12 5.4 12 12z"  horiz-adv-x="1024" />

    
    <glyph glyph-name="clock-o" unicode="&#62084;" d="M512 880C238 880 16 658 16 384s222-496 496-496 496 222 496 496S786 880 512 880z m0-896c-221 0-400 179-400 400S291 784 512 784s400-179 400-400-179-400-400-400z m123.6 208.8l-169.8 123.4c-6.2 4.6-9.8 11.8-9.8 19.4V664c0 13.2 10.8 24 24 24h64c13.2 0 24-10.8 24-24v-283.4l133.6-97.2c10.8-7.8 13-22.8 5.2-33.6L669.2 198c-7.8-10.6-22.8-13-33.6-5.2z"  horiz-adv-x="1024" />

    
    <glyph glyph-name="eye" unicode="&#62095;" d="M1138.70922 432.738C1025.94122 624.102 815.62122 752 576.00122 752 336.28122 752 126.00922 624.012 13.29322 432.738a95.998 95.998 0 0 1 0-97.478C126.06322 143.89800000000002 336.38122 16 576.00122 16c239.72 0 449.992 127.988 562.708 319.262a95.994 95.994 0 0 1 0 97.476zM576.00122 112c-205.112 0-384.182 109.402-480 272 88.314 149.866 247.354 254.54 432.324 270.014C547.91722 633.844 560.00122 606.3399999999999 560.00122 576c0-61.856-50.144-112-112-112s-112 50.144-112 112l0.002 0.084C315.58922 537.914 304.00122 494.312 304.00122 448c0-150.222 121.778-272 272-272s272 121.778 272 272c0 62.062-20.8 119.258-55.79 165.03C903.40922 566.7239999999999 996.01922 485.788 1056.00122 384c-95.816-162.598-274.888-272-480-272z"  horiz-adv-x="1152" />

    
    <glyph glyph-name="file-o" unicode="&#62097;" d="M867.655536 700.038274L699.888303 867.805507C681.891818 885.801992 657.496583 896 632.101543 896H223.981254C170.991603 895.800039 128 852.808436 128 799.818785v-831.837531c0-52.98965 42.991603-95.981254 95.981254-95.981254h575.887522c52.98965 0 95.981254 42.991603 95.981253 95.981254V632.051552c0 25.39504-10.198008 49.990236-28.194493 67.986722zM792.070299 639.850029H639.90002V792.020309l152.170279-152.17028zM223.981254-32.018745999999965V799.818785h319.937512v-207.959383c0-26.594806 21.395821-47.990627 47.990627-47.990626h207.959383v-575.887522H223.981254z"  horiz-adv-x="1024" />

    
    <glyph glyph-name="file-text-o" unicode="&#62098;" d="M704 400v-56c0-13.2-10.8-24-24-24H344c-13.2 0-24 10.8-24 24v56c0 13.2 10.8 24 24 24h336c13.2 0 24-10.8 24-24z m-24-144H344c-13.2 0-24-10.8-24-24v-56c0-13.2 10.8-24 24-24h336c13.2 0 24 10.8 24 24v56c0 13.2-10.8 24-24 24z m216 376.2V-32c0-53-43-96-96-96H224c-53 0-96 43-96 96V800C128 853 171 896 224 896h408.2C657.6 896 682 885.8 700 867.8L867.8 700c18-17.8 28.2-42.4 28.2-67.8z m-256 160V640h152.2L640 792.2zM800-32V544H592c-26.6 0-48 21.4-48 48V800H224v-832h576z"  horiz-adv-x="1024" />

    
    <glyph glyph-name="folder-o" unicode="&#62107;" d="M928 640H544l-128 128H96C42.98 768 0 725.02 0 672v-576c0-53.02 42.98-96 96-96h832c53.02 0 96 42.98 96 96V544c0 53.02-42.98 96-96 96z m-12-544H108c-6.628 0-12 5.356-12 11.984V660.016A11.986 11.986 0 0 0 108 672h268.236l128-128H916a12 12 0 0 0 12-12v-424a12 12 0 0 0-12-12z"  horiz-adv-x="1024" />

    
    <glyph glyph-name="frown-o" unicode="&#62108;" d="M512 880C238 880 16 658 16 384s222-496 496-496 496 222 496 496S786 880 512 880z m0-896c-220.6 0-400 179.4-400 400S291.4 784 512 784s400-179.4 400-400-179.4-400-400-400z m-160 432c35.4 0 64 28.6 64 64s-28.6 64-64 64-64-28.6-64-64 28.6-64 64-64z m320 128c-35.4 0-64-28.6-64-64s28.6-64 64-64 64 28.6 64 64-28.6 64-64 64z m-160-256c-80.4 0-156-35.4-207.6-97.2-17-20.4-14.2-50.6 6.2-67.6 20.4-16.8 50.6-14.2 67.6 6.2 33.2 39.8 82 62.8 133.8 62.8s100.6-22.8 133.8-62.8c16.2-19.4 46.2-23.8 67.6-6.2 20.4 17 23 47.2 6.2 67.6C668 252.60000000000002 592.4 288 512 288z"  horiz-adv-x="1024" />

    
    <glyph glyph-name="meh-o" unicode="&#62145;" d="M512 880C238 880 16 658 16 384s222-496 496-496 496 222 496 496S786 880 512 880z m0-896c-220.6 0-400 179.4-400 400S291.4 784 512 784s400-179.4 400-400-179.4-400-400-400z m-160 432c35.4 0 64 28.6 64 64s-28.6 64-64 64-64-28.6-64-64 28.6-64 64-64z m320 128c-35.4 0-64-28.6-64-64s28.6-64 64-64 64 28.6 64 64-28.6 64-64 64z m16-288H336c-26.4 0-48-21.6-48-48s21.6-48 48-48h352c26.4 0 48 21.6 48 48s-21.6 48-48 48z"  horiz-adv-x="1024" />

    
    <glyph glyph-name="play-circle" unicode="&#62153;" d="M743.4 420l-352 214c-31.6 17.6-71.4-5-71.4-42v-416c0-36.8 39.6-59.6 71.4-42l352 202c32.8 18.2 32.8 65.6 0 84zM1008 384C1008 658 786 880 512 880S16 658 16 384s222-496 496-496 496 222 496 496z m-896 0c0 221 179 400 400 400s400-179 400-400-179-400-400-400S112 163 112 384z"  horiz-adv-x="1024" />

    
    </font>
</defs>
</svg>
