<svg version="1.1" id="图层_1" xmlns="http://www.w3.org/2000/svg" xmlns:xlink="http://www.w3.org/1999/xlink" x="0px" y="0px" viewBox="0 0 220 50" style="enable-background:new 0 0 220 50;" xml:space="preserve"><style type="text/css">
	.st0{opacity:0.8;}
	.st1{fill-rule:evenodd;clip-rule:evenodd;fill:#FFFFFF;}
	.st2{fill:#FFFFFF;stroke:#FFFFFF;stroke-width:0.75;stroke-miterlimit:10;}
	.st3{fill:#FFFFFF;stroke:#FFFFFF;stroke-width:0.5;stroke-miterlimit:10;}
</style><g class="st0"><g><path class="st1" d="M81,11.4c-0.1-0.6-0.3-1.3-0.5-1.9c-0.3-0.6-0.5-1.2-0.8-1.8c-0.4-0.7-0.8-1.3-1.2-1.8 c-0.9-0.7-1.8-0.8-2.5-1.8c-0.4-0.2-0.7-0.5-1.1-0.7c-0.2-0.1-0.4-0.2-0.6-0.3C74,3,73.9,3,73.8,2.9c-1.9,0-4.2,0-5.5,0.4v0.9 c1.3,0.9,3,2.1,4.6,3c0.5,0.2,1,0.5,1.5,0.7c0.3,0.1,0.7,0.2,1,0.5c0,0,0,0,0,0c0,0,0,0,0.1,0.1c0,0,0,0,0,0c0,0,0,0,0,0 c0.1,0.1,0.1,0.2,0.1,0.3C76,9.4,76,10.4,76.1,11c0.1,1,0.1,2,0.1,3c0,1.2-0.4,2.4-0.5,3.7c0,0.1-0.1,0.2-0.3,0.3 c-0.4,0-0.6-0.2-0.9-0.3c-0.2,0-0.3-0.1-0.4-0.3c-0.2-0.1-0.4-0.2-0.7-0.2c-1.4,0.7-1.1,1.4-3.4,1.6c0.3-1.8,1.3-3.1,2.5-3.9 c-0.4-5.8-3.8-2.8-7.2-4.4c-1-0.5-4.4-4.1-5.4-5.2l-0.2,0c-2.9,0.7-4.2,3.4-6.7,4.3c-1.7,0.6-3.2-0.2-4.6,0c0,0-0.1,0.1-0.1,0.1 c-0.2,1.2-0.6,2,0,3c2.3,4.2,9.1-1.7,10.2-3.5c2,0.4,2.9,1.6,3.4,3.5c0.4,0.7,0.4,1.8,0.4,3.1c-3.2,0-5.3,2.7-5.9,5.2 c-0.4,0.1-0.7,0.3-1.1,0.4c-0.3,0.3-0.6-0.1-0.6-0.4h0c0.4-0.9,0.6-1.2,1.2-1.7c0-0.1,0-0.2,0-0.3c-0.1-0.8-0.2-1.2-0.3-1.7 c-0.1-0.1-0.2-0.2-0.2-0.3c-0.5-0.2-0.3-0.1-0.6-0.3c-0.1,0-0.1,0-0.2,0c-1.7,0-2.9,0.1-3.9,0.4c0,0,0,0-0.1,0 c-0.1,0-0.1,0-0.2,0.1c-0.3,0.1-0.6,0.4-0.7,0.8c0.1,0.6,0.2,1.2,0.3,1.9c0.1,0.1,0.1,0.2,0.2,0.3c0.6,0.1,1.3,0.3,1.9,0.4 c-0.4,6.2,4.4,5.4,5.9,1.7c1.7,0.5,1.6,1.3,2.1,2.9c0.1,0.1,0.1,0.1,0.2,0.2c2.8,0,3.3-0.7,3.7-3.1c2,0.3,1.9,1.1,3.6,1.7 c0.1,0,0.3,0,0.4-0.1c1.5-1.3,3.2-1.7,4.1-3.8c0.3,0.2,2.1,6.3,2.8,8c0.1,0.1,0.3,0.2,0.5,0.2c1.8-0.3,1.8-0.9,3-1.7 c0.4-2.1-0.3-3.8,0.4-6.5C79.6,17.3,80.8,15,81,11.4z M62.4,19.5c-0.7,0.3-0.4,0.1-0.8,0.4c-0.5-0.5-0.9-1.1-1.3-1.7H62 c0,0,0,0,0,0c0,0,0,0,0,0c0,0,0,0,0,0c0.1,0.1,0.2,0.2,0.3,0.4c0,0,0,0,0,0c0,0,0,0,0,0h0V19.5z M66.6,18.1L66.6,18.1 C66.6,18.2,66.6,18.2,66.6,18.1C66.6,18.2,66.6,18.2,66.6,18.1C66.6,18.2,66.6,18.2,66.6,18.1C66.5,18.2,66.5,18.2,66.6,18.1 c-0.2,0.2-0.3,0.4-0.4,0.4c0,0,0,0,0,0h-0.4c0.2-0.9,0.1-0.8,0.4-1.3c0.2-1.6,0.3-1.6,0.8-2.6h0.8C67.6,16.2,67.1,16.9,66.6,18.1z "/><path class="st1" d="M80.6,29.1c0-0.1-0.1-0.2-0.1-0.3c-0.3-0.2-0.5-0.3-0.8-0.5c-1,0.1-2,0.3-2.8,0.7c-0.2,0.1-0.4,0.3-0.6,0.4 c-0.1,0.1-0.2,0.1-0.3,0.1c0,0,0,0,0,0c0,0,0,0-0.1,0c0,0,0,0-0.1,0c-1,0.3-2.4,0-2.7-0.9c-0.3-0.3-0.6-0.6-0.9-1.1 c-0.1,0-0.2-0.1-0.3-0.1c-1.7,0.4-2,1.1-2.3,2.8c0,0.1,0,0.2-0.1,0.3c-0.2,0.1-0.5,0.2-0.8,0.2c-0.4,0.1-0.8,0.1-1.3,0.2 c-0.7,0.1-1.7,0.2-2.4,0c-0.4-0.2-0.6-0.5-0.9-0.9c0,0,0,0,0-0.1c0-0.1-0.1-0.1-0.1-0.2c0-0.1,0-0.1,0-0.2 c-0.1-0.4-0.2-0.9-0.3-1.6c-0.1-0.1-0.1-0.1-0.2-0.2c0,0-0.1,0-0.1-0.1c-0.3-0.1-0.2-0.1-0.4-0.2c-0.1,0-0.1-0.1-0.2-0.1 c-1.3,0-2.1,0.2-2.9,0.4c0.1,1.4,0.2,1.8,0.7,2.1c0.2,0.3,0.5,0.5,0.6,0.9c0.1,0.3,0.2,0.6,0.1,0.9c0,0.1-0.1,0.2-0.1,0.3 C61.1,32,61,32.1,61,32.1c-4.2,0.1-8.3,0.3-12.5,0.4c-0.3,0.1-0.4,0.4-0.4,0.8v1.5c0,0.2,0.1,0.3,0.2,0.5c0.2,0.2,0.5,0.4,0.7,0.5 c3,0.4,6.3,0.5,9.6,0.3c0,0,0,0,0,0c0.1,0,0.3,0,0.5,0c0,0,0,0,0,0c0,0,0,0,0,0c0,0,0,0,0,0c0,0,0,0,0,0c0,0,0.1,0,0.1,0 c0,0,0,0,0,0c0.1,0,0.1,0,0.1,0.1c0,0,0,0,0,0c0,0,0,0,0,0s0,0,0,0c0,0,0,0,0,0c0,0,0,0,0,0c0,0,0,0,0,0.1c0,0.1,0,0.1-0.1,0.2 c-0.2,0.4-0.4,0.7-0.7,1c-0.1,0.1-0.1,0.1-0.2,0.2c-0.1,0.3-0.6,0.6-0.6,0.7c-0.2,0.2-0.4,0.3-0.6,0.5c-0.1,0.1-0.2,0.1-0.2,0.1 c-0.1,0-0.1,0.1-0.2,0.1c-0.2,0.2-0.3,0.3-0.5,0.4c0,0.1-0.1,0.1-0.1,0.2v1c0.1,0.2,0.2,0.4,0.5,0.5c0.2,0.1,0.3,0.1,0.5,0.1 c3.7-0.3,5.8-3.1,6.6-6.1c1.9-0.3,3.7-0.6,5.6-0.8c0.1,0,0.1,0,0.2,0c0,0,0.1,0,0.1,0c0,0,0,0,0,0c0.1,0,0.2,0.1,0.3,0.2 c0.3,2.2,0.5,4.5,0.5,6.7c0,1.1,0,2.3,0,3.5c0.1,0.9,0.2,1.8,0.3,2.7c0.2,0.8,0.5,1.6,0.7,2.3c0,0.1,0,0.2,0,0.2 c0.2,0.4,0.3,0.8,0.5,1.2c0.1,0,0.3-0.1,0.4-0.2c0.1-0.2,0.1-0.3,0.2-0.5c0.1-0.1,0.1-0.1,0.1-0.2c0-0.1,0-0.1,0-0.2 c0-0.1,0.1-0.2,0.1-0.3c0-0.3,0.1-0.6,0.1-0.9c0.2-1.4,0.4-2.7,0.4-4.1c0-1,0-2-0.1-3.1c0-0.2-0.1-0.5-0.1-0.7c0-0.5,0-1,0-1.4 c0-0.9,0-1.8,0.1-2.7c0,0,0-0.1,0-0.1c0-0.3,0.1-0.6,0.2-0.9c0-0.1,0-0.1,0-0.2c0,0,0,0,0-0.1c0-0.4,0-0.9,0.1-1.3c0,0,0,0,0,0 c0-0.3,0.1-0.4,0.2-0.6c0,0,0,0,0,0c0,0,0,0,0,0c0,0,0,0,0,0c0,0,0.1-0.1,0.1-0.1v0c0,0,0,0,0,0c0,0,0,0,0,0c0,0,0,0,0,0 c0,0,0.1,0,0.1,0c0,0,0,0,0,0c0,0,0,0,0,0c0.1,0,0.1,0,0.2,0c0,0,0,0,0,0c0,0,0,0,0,0c0.1,0,0.2,0,0.2,0c2.3,0,4.6-0.4,5.2-0.9 c0.9-0.4,0.6-0.4,1.3-0.9C81,30.5,81,29.7,80.6,29.1z"/></g><path class="st1" d="M42.7,28.1c-3.8-0.8-7.2,0.3-10.8,0.4c0-1.3,0.1-2.6-0.4-3.3c0.2-1.6,0.4-1.3,0.8-2.4c5,0.6,7.5,2.4,11.6,0 c-0.1-1.5-0.3-1.5-0.8-2.4c-3.4-0.1-6.1,0-9.6,0v-1.6c0.8-0.2,0.8-0.1,1.2-0.4c2.4-0.3,3.2-1.4,4.8-2.4c-0.5-4.6-4.7-0.8-7.6-0.4 c0.4-1.8,1.1-2,2-3.2c0,0,0,0,0,0c0,0,0-0.1,0-0.1c0-0.1,0-0.2,0-0.4c-0.5-1.2-1.5-1.6-2.8-2c0.2-0.8,4.6-5.7,5.5-6.4 c0-0.1,0.1-0.1,0.1-0.2V0.8c-0.1-0.2-0.1-0.3-0.3-0.5c-0.1,0-0.1-0.1-0.2-0.1c-0.1,0-0.1,0-0.2-0.1c0,0,0,0,0,0 C36,0.1,35.9,0,35.9,0c-5.3,0.1-3.1,2.7-5.6,5.3c-1.9,2-5.1,3-7.6,4.4c0,0,0,0.1-0.1,0.1v0.7c0,0,0,0,0,0c0.3,0.4,0.2,0.1,0.4,0.7 c0.1,0,0.1,0.1,0.2,0.1c1.4,0.3,2.1,0.7,3.9,0.8v1.2c-3,1.3-5,3.2-7.5,4.8c0,0.1,0,0.1-0.1,0.2c0.6,1.6,3.2,3.4,5.2,1.9h0.4 c-0.3,3-7.7,8-11.2,8.1c0.1-3.1,0.6-6.6-1.3-8.3c-0.1-0.1-0.2-0.1-0.2-0.2c0,0,0,0,0,0v0c0,0,0-0.1,0-0.1v-2.3c0,0,0,0,0-0.1 c0,0,0,0,0,0c0,0,0,0,0,0c0.8-1.3,3.4-2,4.3-3.2c1.1-1.4,1.8-3.2,3.1-4.4c0-0.1,0.1-0.2,0.1-0.2c-0.1-2.3-2.1-4.8-4.4-3.1 c-0.4,0.1-0.8,0.3-1.1,0.4c0,0,0,0.1,0,0.1c0.1,1.6-0.1,1.4,1.2,1.9c-0.2,3.5-4,6.6-6.4,8.1c0,0.1,0,0.1-0.1,0.2v3.9 c0,0,0,0.1,0,0.1c0.2,0.5,1,1.8,1.2,2.4C11.3,28,8.6,35.7,11,38.7c0,2.8,0.3,3.8,1.2,5.3c1.5,0.3,1.6,0.2,3.2,0 c0.3-2,1.8-8.2,2.8-9.8v-1.6c-0.7-0.3-0.4-0.1-0.8-0.4c-2.8,0.6-1.8,2.5-3.1,4.3c0,0.1,0,0.2-0.1,0.3c0,0.1,0,0.2-0.1,0.3V37h0 c-0.1,0.1-0.2,0.2-0.4,0.2c-0.4,0-0.6-0.5-0.4-0.8c0-0.1,0-0.2,0-0.3c0-0.5,0.1-0.7,0.3-1.1c0-0.1,0-0.2,0-0.3v-3.9 c0.2,0.8,3.3,0.3,4,0c3-1.4,7.4-3.8,9.2-6.5h0.8c-0.1,2.1,0,2.5,0,4.9c-1.8,0.3-2.4,1.3-3.6,0c-2.5,0.1-2,0.7-3.2,2 c0,2.5,1.8,4.9,2.3,7.9c0,0.1,0.1,0.2,0.1,0.2c0,0,0.1,0.1,0.1,0.1c0,0,0,0,0,0.1c0.5,0.3,0.9,0.5,1.3,0.9c0.1,0,0.3,0.1,0.4,0.1 c0.8-0.3,0.8-0.4,1.3-1.1c0,0,0,0,0,0c0,0,0,0,0,0c0.5,0,1.1,0.2,1.5,0.4c0,0,0,0,0,0c0,0,0,0,0,0c0,0,0,0,0,0c0,0,0,0,0,0 c0,0,0,0,0,0c-0.2,2.4-1.8,3.2-3.5,4c-0.1,0.1-0.1,0.2-0.1,0.4c0.1,0.8,0.2,1.1,0.4,1.7c0,0,0.1,0,0.1,0.1c3.1,0,15.2,0,15.9-0.4 c3.5-1.9,1-9.9,2.8-12.6C43.9,30.3,43.6,29.5,42.7,28.1z M27.1,17.1h-0.8v-0.8c0.7-0.1,1.3-0.3,2-0.4v1.6 C27.5,17.3,27.5,17.4,27.1,17.1z M29.1,35c-1.2,0-2.2,0-2.8-0.4c-0.3-0.4-0.3-0.4-0.4-1c0,0,0-0.1-0.1-0.1c0,0,0,0,0,0l0,0 c0,0,0-0.1,0-0.1c0,0,0,0,0,0c0,0,0,0,0,0c0,0,0,0,0,0c0,0,0,0,0,0c0,0,0,0,0,0c0,0,0,0,0.1,0c0,0,0.1,0,0.1,0 c1.4,0,2.6,0.1,3.4,0.4C29.3,34.2,29.2,34.6,29.1,35z M39.5,32.1c-0.3,2.4-0.4,5.4-0.4,8.2c-1.1,0.1-1.9,0.3-2.5,0.7 c-0.2,0.2-0.3,0.3-0.5,0.4c-0.2,0.1-0.4,0.1-0.6,0.1h-0.4c-0.3,0-0.2,0-0.4,0c0,0-0.1-0.1,0-0.1c0,0,0.1,0,0.1-0.1 c0,0,0.1-0.1,0.1-0.1c0.8-1.1,1.7-1.6,2.2-3c0,0,0,0,0,0c0-0.2,0-0.5-0.1-0.6c0,0,0-0.1,0-0.1c-1.1-0.9-2.7-1.8-3.5-2.9 c-0.2-0.3-0.1-0.6,0-1.3c0-0.3,0-0.5,0-0.7c0,0,0,0,0,0c0,0,0,0,0,0c0,0,0,0,0,0c0,0,0,0,0,0c0,0,0,0,0,0c0,0,0,0,0,0c0,0,0,0,0,0 c0,0,0,0,0,0c0,0,0.1,0,0.1,0c1.8-0.2,3.6-0.5,5.3-0.7c0.2-0.1,0.3-0.1,0.5-0.1c0,0,0,0,0,0c0,0,0,0,0,0c0,0,0,0,0,0c0,0,0,0,0,0 C39.5,31.9,39.5,32,39.5,32.1z"/><g><path class="st2" d="M140.6,26.2l-4.5,0.5l-7.5-9.3c-1.6,2.5-3.2,4.5-4.8,6.1c-1.5,1.6-3.5,3.1-5.9,4.6l-0.3-0.4 c3.3-2.3,6-4.9,7.9-7.7s2.9-4.8,2.7-5.9l0.4-0.2l1.2,1.6c0.1,0.1,0.1,0.1,0.1,0.2c0,0.1,0,0.1-0.1,0.2c-0.3,0.2-0.7,0.6-1,1 l4.5,4.9c1.3,1.5,2.4,2.4,3.3,3c0.9,0.5,2.2,0.8,3.9,1V26.2z M127.9,20.8l1.7,1.3c0.1,0.1,0.1,0.1,0.1,0.2c0,0,0,0.1-0.1,0.2 c-0.2,0.2-0.3,0.5-0.4,0.9c-0.1,0.4-0.1,1.1-0.1,2.1v6.5c0,2.7-0.1,4.4-0.2,4.9c-0.1,0.5-0.2,0.8-0.3,0.8c-0.1,0-0.1-0.1-0.2-0.2 l-1-2.1c0.2-0.3,0.4-0.7,0.4-1c0.1-0.4,0.1-1.2,0.1-2.5v-6.6c0-1.3,0-2.2-0.1-2.6c-0.1-0.4-0.2-0.9-0.4-1.4L127.9,20.8z"/><path class="st2" d="M165.7,35.1l-4.5,0.2l-7.7-12.8c-0.8,3-2,5.5-3.5,7.7c-1.5,2.2-3.6,4.2-6.1,6l-0.2-0.4c2.3-1.9,4.2-4,5.6-6.2 c1.5-2.2,2.5-4.6,3.2-7.1c0.7-2.5,1-4.6,1-6.3c0-0.9-0.1-1.6-0.3-2.1l0.3-0.2l1.7,1.8c0.1,0.1,0.2,0.2,0.2,0.2 c0,0-0.1,0.1-0.2,0.3c-0.1,0.1-0.3,0.4-0.4,0.7c-0.1,0.3-0.3,1-0.5,2c-0.2,1-0.4,1.9-0.6,2.6l3.4,5.5c2,3.2,3.4,5.2,4.4,6 c1,0.8,2.3,1.4,4,1.6V35.1z"/><path class="st2" d="M186.8,14.6l1.1,0.9c0.1,0.1,0.2,0.2,0.2,0.2c0,0.1-0.1,0.2-0.2,0.3c-0.1,0.1-0.2,0.4-0.3,0.7 c-0.1,0.3-0.1,0.7-0.1,1.1v14.4c0,1.8-0.1,3.1-0.2,3.8c-0.2,0.7-0.3,1-0.4,1c-0.1,0-0.1-0.1-0.2-0.2c-1.2-1.3-2.5-2.6-3.8-3.8 l0.3-0.3l3.1,2.2c0.2-0.4,0.3-1.4,0.3-3.1V16.6l-13.6,1.2V32c0,1.9,0,3.1,0,3.4c0,0.4-0.1,0.5-0.1,0.5c0,0-0.1-0.1-0.2-0.2l-1.2-2 c0.3-0.4,0.4-0.9,0.5-1.3c0.1-0.5,0.1-1.2,0.1-2.1v-11c0-1.4-0.2-2.7-0.5-4l0.4-0.1l0.9,1.9l13.2-1.2L186.8,14.6z M179.3,26.2 c0,0.7-0.1,1.2-0.2,1.5c-0.1,0.3-0.2,0.4-0.2,0.4c-0.1,0-0.1,0-0.2-0.2c-0.4-0.8-0.9-1.7-1.6-2.8c-1.2,2.9-2.3,5-3.4,6.1l-0.3-0.2 c1.3-2.2,2.3-4.5,3.1-6.8c-0.7-1-1.4-2-2.3-3.1l0.3-0.2l2.3,2.5c0.5-1.6,0.7-2.9,0.7-3.8c0-0.2,0-0.3,0-0.5l0.3-0.1l1,1.5 c0.1,0.1,0.1,0.2,0.1,0.2c0,0.1,0,0.1-0.1,0.2c-0.2,0.2-0.4,0.5-0.5,0.9l-0.8,2.2L179.3,26.2z M185,27.7c-0.1,0.6-0.2,1.1-0.3,1.5 c-0.1,0.3-0.2,0.5-0.3,0.5c-0.1,0-0.1-0.1-0.2-0.3c-0.5-1.2-1.1-2.6-2-4.1c-1.5,2.8-3,4.9-4.4,6.2l-0.3-0.2 c1.6-1.9,2.9-4.2,4.2-6.9c-0.6-1-1.2-1.9-1.9-2.9l0.3-0.3l1.8,2.5c1-2.5,1.4-4.2,1.3-5.2l0.3-0.1l1.1,1.4c0.1,0.1,0.1,0.2,0.1,0.3 s-0.1,0.1-0.2,0.2c-0.3,0.3-0.6,0.8-0.8,1.6c-0.3,0.8-0.7,1.7-1.1,2.5L185,27.7z"/><path class="st2" d="M204.5,21.5c0.1,0,0.1,0.1,0.1,0.2c0,0,0,0.1-0.2,0.1l-2.4,0.3l1.1,1.2c0.1,0.1,0.1,0.1,0.1,0.2 c0,0.1-0.1,0.1-0.2,0.2c-0.2,0.2-0.4,0.9-0.6,2.1c-0.2,1.2-0.5,2.9-0.8,5.1l2.7-0.9l0.1,0.4c-5.3,2.3-8.1,3.6-8.3,3.9l-1.5-0.9 l6.3-2.2c0.5-3.6,0.7-6.2,0.7-7.7c0-0.5,0-0.9-0.1-1.2c-3.1,0.5-5,0.8-5.6,1.1l-1.1-0.9c2.9-0.4,4.9-0.8,6.3-1 c1.3-0.2,2.1-0.5,2.5-0.7L204.5,21.5z M199.6,28.3c-0.2,0.6-0.3,1.1-0.4,1.4c-0.1,0.3-0.2,0.4-0.3,0.4c-0.1,0-0.1-0.1-0.2-0.2 l-1.4-5.3l0.4-0.1L199.6,28.3z M201.2,18.5c0,0.4-0.1,0.8-0.2,1.1c-0.1,0.3-0.2,0.6-0.3,0.7c-0.1,0.1-0.1,0.2-0.2,0.2 s-0.1-0.1-0.2-0.2l-2.1-3.9l0.3-0.2L201.2,18.5z M214.8,21.7c0.1,0.1,0.2,0.1,0.2,0.2c0,0-0.1,0.1-0.2,0.1l-5.9,0.8v5l2.7-0.4 l0.7-1l1,1c0.1,0.1,0.1,0.1,0.1,0.2c0,0.1,0,0.1-0.1,0.2c-0.3,0.3-0.5,0.9-0.6,1.9l-0.5,3.9l0.8,0.9c0.1,0.1,0.1,0.2,0.1,0.2 c0,0-0.1,0.1-0.2,0.1l-6.9,0.6c0,0.8,0,1.4-0.1,1.6c-0.1,0.2-0.2,0.4-0.2,0.4c-0.1,0-0.1,0-0.2-0.1l-0.9-1.7 c0.4-0.5,0.5-1.3,0.4-2.3l-0.3-4.1c-0.1-1.1-0.2-1.9-0.3-2.5l0.3-0.1l0.8,1.7l2.3-0.3v-9.4c0-2-0.2-3.3-0.6-4.1l0.3-0.2l1.7,1.5 c0.1,0,0.1,0.1,0.1,0.2c0,0.1,0,0.1,0,0.2c-0.2,0.3-0.3,0.8-0.4,1.4c-0.1,0.7-0.2,1.3-0.2,1.9v2.5c2.6-0.3,4.2-0.7,4.7-1.1 L214.8,21.7z M211.8,28.3l-6,0.8l0.3,5.3l5.2-0.6L211.8,28.3z"/></g><g><path class="st3" d="M98.1,2.5V39h-2c-0.6,0-1,0.2-1.4,0.6c-0.4,0.4-0.5,0.9-0.5,1.5v5.7c0,0.6,0.2,1.1,0.5,1.4 c0.3,0.4,0.7,0.6,1.3,0.6c0.1,0,0.9-0.1,2.2-0.3v0.3h1.2V2.5C98.9,2.5,98.5,2.5,98.1,2.5z M98.1,47.6c-1,0.1-1.5,0.1-1.7,0.1 c-0.7,0-1-0.4-1-1.1v-5.2c0-0.8,0.3-1.1,1-1.1h1.7V47.6z"/></g><path class="st1" d="M97.4,2.5"/><g><path class="st3" d="M108.7,43.6c0,0.7-0.3,1-1,1h-3c-0.7,0-1-0.3-1-1v-6.9c0-0.7,0.3-1,1-1h3c0.7,0,1,0.4,1,1v3.3l-0.4,0.4h-3.4 v3.3h2.7v-1.7h1.2V43.6z M107.5,39.3v-2.7h-2.7v2.7H107.5z"/></g></g></svg>